<?xml version="1.0" encoding="UTF-8" standalone="no"?>
<!-- Created with Inkscape (http://www.inkscape.org/) -->

<svg
   xmlns:dc="http://purl.org/dc/elements/1.1/"
   xmlns:cc="http://creativecommons.org/ns#"
   xmlns:rdf="http://www.w3.org/1999/02/22-rdf-syntax-ns#"
   xmlns:svg="http://www.w3.org/2000/svg"
   xmlns="http://www.w3.org/2000/svg"
   xmlns:xlink="http://www.w3.org/1999/xlink"
   xmlns:sodipodi="http://sodipodi.sourceforge.net/DTD/sodipodi-0.dtd"
   xmlns:inkscape="http://www.inkscape.org/namespaces/inkscape"
   width="225.77777mm"
   height="169.33333mm"
   viewBox="0 0 799.99998 599.99998"
   id="svg3754"
   version="1.1"
   inkscape:version="0.92.3 (2405546, 2018-03-11)"
   sodipodi:docname="capa.svg">
  <defs
     id="defs3756">
    <pattern
       patternTransform="matrix(1.7148086,0.03566181,-0.03073366,1.4778373,-298.22424,7.4154944)"
       id="pattern6071"
       xlink:href="#pattern17313"
       inkscape:collect="always" />
    <pattern
       id="pattern17313"
       patternTransform="translate(318.61426,541.09566)"
       height="64.5"
       width="64.53125"
       patternUnits="userSpaceOnUse">
      <g
         transform="translate(-344.61426,-329.09566)"
         id="g17251"
         style="stroke:#ffffff">
        <path
           inkscape:connector-curvature="0"
           style="fill:none;stroke:#ffffff;stroke-width:1px;stroke-linecap:butt;stroke-linejoin:miter;stroke-opacity:1"
           d="m -236.625,187.46875 1.59375,1.59375"
           id="path17253"
           transform="translate(581.58301,204.18941)" />
        <path
           inkscape:connector-curvature="0"
           style="fill:none;stroke:#ffffff;stroke-width:1px;stroke-linecap:butt;stroke-linejoin:miter;stroke-opacity:1"
           d="m -236.625,183.15625 5.90625,5.90625"
           id="path17255"
           transform="translate(581.58301,204.18941)" />
        <path
           inkscape:connector-curvature="0"
           style="fill:none;stroke:#ffffff;stroke-width:1px;stroke-linecap:butt;stroke-linejoin:miter;stroke-opacity:1"
           d="m -236.625,178.84375 10.21875,10.21875"
           id="path17257"
           transform="translate(581.58301,204.18941)" />
        <path
           inkscape:connector-curvature="0"
           style="fill:none;stroke:#ffffff;stroke-width:1px;stroke-linecap:butt;stroke-linejoin:miter;stroke-opacity:1"
           d="m -236.625,174.53125 14.53125,14.53125"
           id="path17259"
           transform="translate(581.58301,204.18941)" />
        <path
           inkscape:connector-curvature="0"
           style="fill:none;stroke:#ffffff;stroke-width:1px;stroke-linecap:butt;stroke-linejoin:miter;stroke-opacity:1"
           d="m -236.625,170.21875 18.84375,18.84375"
           id="path17261"
           transform="translate(581.58301,204.18941)" />
        <path
           inkscape:connector-curvature="0"
           style="fill:none;stroke:#ffffff;stroke-width:1px;stroke-linecap:butt;stroke-linejoin:miter;stroke-opacity:1"
           d="m -236.625,165.90625 23.15625,23.15625"
           id="path17263"
           transform="translate(581.58301,204.18941)" />
        <path
           inkscape:connector-curvature="0"
           style="fill:none;stroke:#ffffff;stroke-width:1px;stroke-linecap:butt;stroke-linejoin:miter;stroke-opacity:1"
           d="m -236.625,161.59375 27.46875,27.46875"
           id="path17265"
           transform="translate(581.58301,204.18941)" />
        <path
           inkscape:connector-curvature="0"
           style="fill:none;stroke:#ffffff;stroke-width:1px;stroke-linecap:butt;stroke-linejoin:miter;stroke-opacity:1"
           d="m -236.625,157.28125 31.78125,31.78125"
           id="path17267"
           transform="translate(581.58301,204.18941)" />
        <path
           inkscape:connector-curvature="0"
           style="fill:none;stroke:#ffffff;stroke-width:1px;stroke-linecap:butt;stroke-linejoin:miter;stroke-opacity:1"
           d="m -236.625,152.96875 36.09375,36.09375"
           id="path17269"
           transform="translate(581.58301,204.18941)" />
        <path
           inkscape:connector-curvature="0"
           style="fill:none;stroke:#ffffff;stroke-width:1px;stroke-linecap:butt;stroke-linejoin:miter;stroke-opacity:1"
           d="m -236.625,148.65625 40.40625,40.40625"
           id="path17271"
           transform="translate(581.58301,204.18941)" />
        <path
           inkscape:connector-curvature="0"
           style="fill:none;stroke:#ffffff;stroke-width:1px;stroke-linecap:butt;stroke-linejoin:miter;stroke-opacity:1"
           d="m -236.625,144.34375 44.71875,44.71875"
           id="path17273"
           transform="translate(581.58301,204.18941)" />
        <path
           inkscape:connector-curvature="0"
           style="fill:none;stroke:#ffffff;stroke-width:1px;stroke-linecap:butt;stroke-linejoin:miter;stroke-opacity:1"
           d="m -236.625,140.03125 49.03125,49.03125"
           id="path17275"
           transform="translate(581.58301,204.18941)" />
        <path
           inkscape:connector-curvature="0"
           style="fill:none;stroke:#ffffff;stroke-width:1px;stroke-linecap:butt;stroke-linejoin:miter;stroke-opacity:1"
           d="m -236.625,135.71875 53.34375,53.34375"
           id="path17277"
           transform="translate(581.58301,204.18941)" />
        <path
           inkscape:connector-curvature="0"
           style="fill:none;stroke:#ffffff;stroke-width:1px;stroke-linecap:butt;stroke-linejoin:miter;stroke-opacity:1"
           d="m -236.625,131.40625 57.65625,57.65625"
           id="path17279"
           transform="translate(581.58301,204.18941)" />
        <path
           inkscape:connector-curvature="0"
           style="fill:none;stroke:#ffffff;stroke-width:1px;stroke-linecap:butt;stroke-linejoin:miter;stroke-opacity:1"
           d="m -236.625,127.09375 61.96875,61.96875"
           id="path17281"
           transform="translate(581.58301,204.18941)" />
        <path
           inkscape:connector-curvature="0"
           style="fill:none;stroke:#ffffff;stroke-width:1px;stroke-linecap:butt;stroke-linejoin:miter;stroke-opacity:1"
           d="m -234.15625,125.25 61.375,61.375"
           id="path17283"
           transform="translate(581.58301,204.18941)" />
        <path
           inkscape:connector-curvature="0"
           style="fill:none;stroke:#ffffff;stroke-width:1px;stroke-linecap:butt;stroke-linejoin:miter;stroke-opacity:1"
           d="m -229.84375,125.25 57.0625,57.0625"
           id="path17285"
           transform="translate(581.58301,204.18941)" />
        <path
           inkscape:connector-curvature="0"
           style="fill:none;stroke:#ffffff;stroke-width:1px;stroke-linecap:butt;stroke-linejoin:miter;stroke-opacity:1"
           d="m -225.53125,125.25 52.75,52.75"
           id="path17287"
           transform="translate(581.58301,204.18941)" />
        <path
           inkscape:connector-curvature="0"
           style="fill:none;stroke:#ffffff;stroke-width:1px;stroke-linecap:butt;stroke-linejoin:miter;stroke-opacity:1"
           d="m -221.21875,125.25 48.4375,48.4375"
           id="path17289"
           transform="translate(581.58301,204.18941)" />
        <path
           inkscape:connector-curvature="0"
           style="fill:none;stroke:#ffffff;stroke-width:1px;stroke-linecap:butt;stroke-linejoin:miter;stroke-opacity:1"
           d="m -216.90625,125.25 44.125,44.125"
           id="path17291"
           transform="translate(581.58301,204.18941)" />
        <path
           inkscape:connector-curvature="0"
           style="fill:none;stroke:#ffffff;stroke-width:1px;stroke-linecap:butt;stroke-linejoin:miter;stroke-opacity:1"
           d="m -212.59375,125.25 39.8125,39.8125"
           id="path17293"
           transform="translate(581.58301,204.18941)" />
        <path
           inkscape:connector-curvature="0"
           style="fill:none;stroke:#ffffff;stroke-width:1px;stroke-linecap:butt;stroke-linejoin:miter;stroke-opacity:1"
           d="m -208.28125,125.25 35.5,35.5"
           id="path17295"
           transform="translate(581.58301,204.18941)" />
        <path
           inkscape:connector-curvature="0"
           style="fill:none;stroke:#ffffff;stroke-width:1px;stroke-linecap:butt;stroke-linejoin:miter;stroke-opacity:1"
           d="m -203.9375,125.25 31.15625,31.15625"
           id="path17297"
           transform="translate(581.58301,204.18941)" />
        <path
           inkscape:connector-curvature="0"
           style="fill:none;stroke:#ffffff;stroke-width:1px;stroke-linecap:butt;stroke-linejoin:miter;stroke-opacity:1"
           d="m -199.625,125.25 26.84375,26.84375"
           id="path17299"
           transform="translate(581.58301,204.18941)" />
        <path
           inkscape:connector-curvature="0"
           style="fill:none;stroke:#ffffff;stroke-width:1px;stroke-linecap:butt;stroke-linejoin:miter;stroke-opacity:1"
           d="m -195.3125,125.25 22.53125,22.53125"
           id="path17301"
           transform="translate(581.58301,204.18941)" />
        <path
           inkscape:connector-curvature="0"
           style="fill:none;stroke:#ffffff;stroke-width:1px;stroke-linecap:butt;stroke-linejoin:miter;stroke-opacity:1"
           d="m -191,125.25 18.21875,18.21875"
           id="path17303"
           transform="translate(581.58301,204.18941)" />
        <path
           inkscape:connector-curvature="0"
           style="fill:none;stroke:#ffffff;stroke-width:1px;stroke-linecap:butt;stroke-linejoin:miter;stroke-opacity:1"
           d="m -186.6875,125.25 13.90625,13.90625"
           id="path17305"
           transform="translate(581.58301,204.18941)" />
        <path
           inkscape:connector-curvature="0"
           style="fill:none;stroke:#ffffff;stroke-width:1px;stroke-linecap:butt;stroke-linejoin:miter;stroke-opacity:1"
           d="m -182.375,125.25 9.59375,9.59375"
           id="path17307"
           transform="translate(581.58301,204.18941)" />
        <path
           inkscape:connector-curvature="0"
           style="fill:none;stroke:#ffffff;stroke-width:1px;stroke-linecap:butt;stroke-linejoin:miter;stroke-opacity:1"
           d="m -178.0625,125.25 5.28125,5.28125"
           id="path17309"
           transform="translate(581.58301,204.18941)" />
        <path
           inkscape:connector-curvature="0"
           style="fill:none;stroke:#ffffff;stroke-width:1px;stroke-linecap:butt;stroke-linejoin:miter;stroke-opacity:1"
           d="m -173.75,125.25 0.96875,0.96875"
           id="path17311"
           transform="translate(581.58301,204.18941)" />
      </g>
    </pattern>
  </defs>
  <sodipodi:namedview
     id="base"
     pagecolor="#ffffff"
     bordercolor="#666666"
     borderopacity="1.0"
     inkscape:pageopacity="0.0"
     inkscape:pageshadow="2"
     inkscape:zoom="0.48333334"
     inkscape:cx="188.74529"
     inkscape:cy="324.18758"
     inkscape:document-units="px"
     inkscape:current-layer="layer1"
     showgrid="false"
     fit-margin-top="0"
     fit-margin-left="0"
     fit-margin-right="0"
     fit-margin-bottom="0"
     inkscape:window-width="1366"
     inkscape:window-height="712"
     inkscape:window-x="0"
     inkscape:window-y="0"
     inkscape:window-maximized="1" />
  <metadata
     id="metadata3759">
    <rdf:RDF>
      <cc:Work
         rdf:about="">
        <dc:format>image/svg+xml</dc:format>
        <dc:type
           rdf:resource="http://purl.org/dc/dcmitype/StillImage" />
        <dc:title />
      </cc:Work>
    </rdf:RDF>
  </metadata>
  <g
     inkscape:label="Layer 1"
     inkscape:groupmode="layer"
     id="layer1"
     transform="translate(534.28571,64.780651)">
    <g
       style="font-style:normal;font-weight:normal;font-size:40px;line-height:125%;font-family:sans-serif;letter-spacing:0px;word-spacing:0px;fill:#000000;fill-opacity:1;stroke:none;stroke-width:1px;stroke-linecap:butt;stroke-linejoin:miter;stroke-opacity:1"
       id="text5316" />
    <path
       inkscape:connector-curvature="0"
       style="opacity:1;fill:#fdf6e3;fill-opacity:1;stroke:none;stroke-width:100;stroke-miterlimit:4;stroke-dasharray:none;stroke-opacity:1"
       d="m -534.28571,-64.780647 h 800 V 535.21935 h -800 z"
       id="rect3452" />
    <path
       inkscape:connector-curvature="0"
       style="opacity:1;fill:#f2ebc8;fill-opacity:1;stroke:none;stroke-width:0;stroke-miterlimit:4;stroke-dasharray:none;stroke-opacity:1"
       d="m -517.73407,234.21935 h 766.55176 v 2 h -766.55176 z"
       id="rect6528" />
    <path
       inkscape:connector-curvature="0"
       style="opacity:1;fill:#f2ebc8;fill-opacity:1;stroke:none;stroke-width:0;stroke-miterlimit:4;stroke-dasharray:none;stroke-opacity:1"
       d="m -133.28572,-51.849621 0,574.137941 h -2 l 0,-574.137941 z"
       id="rect6540" />
    <g
       style="font-style:normal;font-weight:normal;font-size:30px;line-height:125%;font-family:sans-serif;letter-spacing:0px;word-spacing:0px;fill:#d84a46;fill-opacity:1;stroke:none;stroke-width:1px;stroke-linecap:butt;stroke-linejoin:miter;stroke-opacity:1"
       id="text6542">
      <path
         inkscape:connector-curvature="0"
         d="m -377.31448,169.77231 q 0,-4.10156 -0.77637,-5.77149 -0.76172,-1.68457 -2.57813,-1.68457 -1.8164,0 -2.59277,1.68457 -0.77637,1.66993 -0.77637,5.77149 0,4.14551 0.77637,5.84472 0.77637,1.69922 2.59277,1.69922 1.80176,0 2.57813,-1.69922 0.77637,-1.69921 0.77637,-5.84472 z m 5.63964,0.0439 q 0,5.43457 -2.34375,8.39356 -2.34375,2.94433 -6.65039,2.94433 -4.32128,0 -6.66503,-2.94433 -2.34375,-2.95899 -2.34375,-8.39356 0,-5.44922 2.34375,-8.39355 2.34375,-2.95899 6.66503,-2.95899 4.30664,0 6.65039,2.95899 2.34375,2.94433 2.34375,8.39355 z"
         style="font-weight:bold;font-size:30px;fill:#d84a46;fill-opacity:1"
         id="path4605" />
      <path
         inkscape:connector-curvature="0"
         d="m -367.19241,175.06039 h 5.27343 v 5.66895 h -5.27343 z"
         style="font-weight:bold;font-size:30px;fill:#d84a46;fill-opacity:1"
         id="path4607" />
      <path
         inkscape:connector-curvature="0"
         d="m -337.63187,168.55649 q 1.77246,0 2.53418,-0.65918 0.77637,-0.65918 0.77637,-2.16797 0,-1.49414 -0.77637,-2.13867 -0.76172,-0.64453 -2.53418,-0.64453 h -2.37304 v 5.61035 z m -2.37304,3.89648 v 8.27637 h -5.63965 v -21.87012 h 8.61328 q 4.32129,0 6.32812,1.4502 2.02149,1.45019 2.02149,4.58496 0,2.16797 -1.05469,3.55957 -1.04004,1.3916 -3.14941,2.05078 1.15722,0.26367 2.06543,1.20117 0.92285,0.92285 1.86035,2.8125 l 3.06152,6.21094 h -6.00586 l -2.66601,-5.43457 q -0.80567,-1.64063 -1.64063,-2.24121 -0.82031,-0.60059 -2.19726,-0.60059 z"
         style="font-weight:bold;font-size:30px;fill:#d84a46;fill-opacity:1"
         id="path4609" />
      <path
         inkscape:connector-curvature="0"
         d="m -322.55862,158.85922 h 5.63964 v 13.11035 q 0,2.70996 0.87891,3.88184 0.89356,1.15723 2.90039,1.15723 2.02149,0 2.90039,-1.15723 0.89356,-1.17188 0.89356,-3.88184 v -13.11035 h 5.63964 v 13.11035 q 0,4.64356 -2.3291,6.91407 -2.3291,2.2705 -7.10449,2.2705 -4.76074,0 -7.08984,-2.2705 -2.3291,-2.27051 -2.3291,-6.91407 z"
         style="font-weight:bold;font-size:30px;fill:#d84a46;fill-opacity:1"
         id="path4611" />
      <path
         inkscape:connector-curvature="0"
         d="m -298.18362,158.85922 h 6.29882 l 7.95411,15 v -15 h 5.34668 v 21.87012 h -6.29883 l -7.9541,-15 v 15 h -5.34668 z"
         style="font-weight:bold;font-size:30px;fill:#d84a46;fill-opacity:1"
         id="path4613" />
    </g>
    <g
       id="g4377"
       transform="translate(3.7349301)">
      <path
         id="rect3803"
         transform="translate(-534.28571,-64.780651)"
         d="m 186.48633,80.216797 c -14.24225,0 -25.70703,11.466739 -25.70703,25.708983 v 55.50586 c 0,14.24225 11.46478,25.70898 25.70703,25.70898 h 19.86719 c 14.24224,0 25.70703,-11.46673 25.70703,-25.70898 v -55.50586 c 0,-14.242244 -11.46479,-25.708983 -25.70703,-25.708983 z m 11.73242,5.912109 h 5.05078 c 12.65975,0 22.84961,10.191728 22.84961,22.851564 v 21.92187 h -26.73047 v -7.83398 c 4.36906,-0.57346 7.72266,-4.28588 7.72266,-8.81641 V 95.039062 c 0,-4.93044 -3.96214,-8.910156 -8.89258,-8.910156 z m -1.79883,4.47461 c 3.29082,0 5.93945,3.010138 5.93946,6.75 v 14.576174 c 0,3.73986 -2.64864,6.75 -5.93946,6.75 -3.29082,0 -5.93945,-3.01014 -5.93945,-6.75 V 97.353516 c 0,-3.739862 2.64863,-6.75 5.93945,-6.75 z M 166.71875,136.8418 h 59.40039 v 21.47851 c 0,12.65975 -10.18986,22.84961 -22.84961,22.84961 h -13.70117 c -12.65983,0 -22.84961,-10.18986 -22.84961,-22.84961 z"
         style="fill:#d84a46;fill-opacity:1"
         inkscape:connector-curvature="0" />
      <path
         id="path3840"
         d="m -344.71652,21.348184 c -12.65983,0 -22.85087,10.191036 -22.85087,22.850869 V 66.12168 h 26.73047 v -7.833482 c -4.36907,-0.573457 -7.72216,-4.286823 -7.72216,-8.817347 V 30.258338 c 0,-4.930441 3.96128,-8.910154 8.89164,-8.910154 z"
         style="fill:url(#pattern6071);fill-opacity:1"
         inkscape:connector-curvature="0" />
      <path
         sodipodi:nodetypes="cssccsscccc"
         inkscape:connector-curvature="0"
         style="color:#000000;font-style:normal;font-variant:normal;font-weight:normal;font-stretch:normal;font-size:medium;line-height:normal;font-family:'Bitstream Vera Sans';-inkscape-font-specification:'Bitstream Vera Sans';text-indent:0;text-align:start;text-decoration:none;text-decoration-line:none;letter-spacing:normal;word-spacing:normal;text-transform:none;writing-mode:lr-tb;direction:ltr;text-anchor:start;display:inline;overflow:visible;visibility:visible;fill:#d84a46;fill-opacity:1;stroke:none;stroke-width:10;marker:none;enable-background:accumulate"
         d="m -362.93428,-17.636315 c 13.29328,-0.173062 21.0245,4.500727 24.59579,9.9665647 3.57122,5.4659171 3.50304,11.4867771 3.43407,14.6461533 -0.0564,2.575987 0,13.43019 0,13.43019 l -5.94013,0.0143 c 0,0 -0.062,-10.703071 0,-13.5292749 0.066,-3.0389161 -0.0636,-8.3328042 -2.82152,-12.5538344 -2.75787,-4.2209508 -7.60019,-7.6009057 -19.1754,-7.4501717 h -10.66501 l 0.0207,-4.523849 z"
         id="path3815" />
    </g>
    <g
       id="g8100"
       transform="matrix(0.76579219,0,0,0.76579219,1143.8938,-925.83469)">
      <g
         style="fill:#d84a46;fill-opacity:1"
         id="g8095">
        <path
           style="fill:#d84a46;fill-opacity:1"
           inkscape:connector-curvature="0"
           d="m -1422.5684,1774.582 c 0,8.2188 6.6338,14.8565 14.8438,14.8565 8.2075,0 14.8452,-6.6465 14.8452,-14.8565 0,-8.1836 -29.689,-8.1836 -29.689,0 z"
           id="path7785" />
        <path
           style="fill:#d84a46;fill-opacity:1"
           inkscape:connector-curvature="0"
           d="m -1384.312,1776.0176 c 0,3.2363 -2.6367,5.8662 -5.8457,5.8662 h -35.1357 c -3.208,0 -5.8452,-2.6299 -5.8452,-5.8662 v -11.7012 c 0,-3.2314 2.6372,-5.8447 5.8452,-5.8447 h 35.1357 c 3.209,0 5.8457,2.6133 5.8457,5.8447 z"
           id="path7787" />
        <path
           style="fill:#d84a46;fill-opacity:1"
           inkscape:connector-curvature="0"
           d="m -1407.7246,1642.3262 c -25.0527,0 -45.3687,20.3125 -45.3687,45.3711 0,25.7304 22.1396,40.7148 22.1396,53.9062 v 3.21 c 0,3.2148 2.6147,5.8076 5.8008,5.8076 h 34.8496 c 3.1855,0 5.793,-2.5928 5.793,-5.8076 v -3.1709 c 0,-13.2305 22.1484,-27.7871 22.1484,-53.9453 1e-4,-25.0586 -20.3124,-45.3711 -45.3627,-45.3711 z m -24.4849,61.3906 c -3.4033,-4.7773 -5.4087,-10.5762 -5.4087,-16.8574 0,-16.2481 13.3687,-29.4356 29.854,-29.4356 5.7402,0 11.0898,1.6172 15.6328,4.4073 -0.5498,-0.031 -1.1133,-0.094 -1.6777,-0.094 -21.3257,0 -38.5947,17.0576 -38.5947,38.0947 0,1.295 0.08,2.6211 0.1943,3.8848 z"
           id="path7789" />
      </g>
      <path
         inkscape:connector-curvature="0"
         style="fill:#2b0000;stroke:#d84a46;stroke-width:2;stroke-linecap:round;stroke-linejoin:round;stroke-miterlimit:10;stroke-opacity:1"
         d="m -1407.7246,1617.9902 v -23.4131"
         id="line7791" />
      <path
         inkscape:connector-curvature="0"
         style="fill:#2b0000;stroke:#d84a46;stroke-width:2;stroke-linecap:round;stroke-linejoin:round;stroke-miterlimit:10;stroke-opacity:1"
         d="m -1337.4849,1688.2305 h 23.4141"
         id="line7793" />
      <path
         inkscape:connector-curvature="0"
         style="fill:#2b0000;stroke:#d84a46;stroke-width:2;stroke-linecap:round;stroke-linejoin:round;stroke-miterlimit:10;stroke-opacity:1"
         d="m -1501.3789,1688.2305 h 23.4136"
         id="line7795" />
      <path
         inkscape:connector-curvature="0"
         style="fill:#2b0000;stroke:#d84a46;stroke-width:2;stroke-linecap:round;stroke-linejoin:round;stroke-miterlimit:10;stroke-opacity:1"
         d="m -1358.0649,1737.9082 16.5556,16.5557"
         id="line7797" />
      <path
         inkscape:connector-curvature="0"
         style="fill:#2b0000;stroke:#d84a46;stroke-width:2;stroke-linecap:round;stroke-linejoin:round;stroke-miterlimit:10;stroke-opacity:1"
         d="m -1473.9463,1622.0156 16.561,16.5537"
         id="line7799" />
      <path
         inkscape:connector-curvature="0"
         style="fill:#2b0000;stroke:#d84a46;stroke-width:2;stroke-linecap:round;stroke-linejoin:round;stroke-miterlimit:10;stroke-opacity:1"
         d="m -1457.4033,1737.9014 -16.5503,16.5449"
         id="line7801" />
      <path
         inkscape:connector-curvature="0"
         style="fill:#2b0000;stroke:#d84a46;stroke-width:2;stroke-linecap:round;stroke-linejoin:round;stroke-miterlimit:10;stroke-opacity:1"
         d="m -1341.5093,1622.0156 -16.5556,16.5537"
         id="line7803" />
    </g>
    <path
       id="path4618"
       style="font-style:normal;font-weight:bold;font-size:30px;line-height:125%;font-family:sans-serif;letter-spacing:0px;word-spacing:0px;fill:#d84a46;fill-opacity:1;stroke:none;stroke-width:1px;stroke-linecap:butt;stroke-linejoin:miter;stroke-opacity:1"
       d="m -8.3911133,497.20471 h 5.2734375 v 5.66895 h -5.2734375 z"
       inkscape:connector-curvature="0" />
    <path
       id="path4620"
       style="font-style:normal;font-weight:bold;font-size:30px;line-height:125%;font-family:sans-serif;letter-spacing:0px;word-spacing:0px;fill:#d84a46;fill-opacity:1;stroke:none;stroke-width:1px;stroke-linecap:butt;stroke-linejoin:miter;stroke-opacity:1"
       d="m 13.156738,481.00354 h 5.639649 v 21.87012 h -5.639649 z"
       inkscape:connector-curvature="0" />
    <path
       id="path4622"
       style="font-style:normal;font-weight:bold;font-size:30px;line-height:125%;font-family:sans-serif;letter-spacing:0px;word-spacing:0px;fill:#d84a46;fill-opacity:1;stroke:none;stroke-width:1px;stroke-linecap:butt;stroke-linejoin:miter;stroke-opacity:1"
       d="m 24.348145,481.00354 h 7.177734 l 4.980469,11.7041 5.009765,-11.7041 h 7.163086 v 21.87012 h -5.332031 v -15.9961 l -5.039063,11.792 h -3.574218 l -5.039063,-11.792 v 15.9961 h -5.346679 z"
       inkscape:connector-curvature="0" />
    <path
       id="path4624"
       style="font-style:normal;font-weight:bold;font-size:30px;line-height:125%;font-family:sans-serif;letter-spacing:0px;word-spacing:0px;fill:#d84a46;fill-opacity:1;stroke:none;stroke-width:1px;stroke-linecap:butt;stroke-linejoin:miter;stroke-opacity:1"
       d="m 54.230957,481.00354 h 9.360352 q 4.174804,0 6.401367,1.86035 2.241211,1.8457 2.241211,5.27344 0,3.44238 -2.241211,5.30273 -2.226563,1.84571 -6.401367,1.84571 h -3.720704 v 7.58789 h -5.639648 z m 5.639648,4.08691 v 6.1084 h 3.120118 q 1.640625,0 2.534179,-0.79101 0.893555,-0.80567 0.893555,-2.27051 0,-1.46484 -0.893555,-2.25586 -0.893554,-0.79102 -2.534179,-0.79102 z"
       inkscape:connector-curvature="0" />
    <path
       id="path4626"
       style="font-style:normal;font-weight:bold;font-size:30px;line-height:125%;font-family:sans-serif;letter-spacing:0px;word-spacing:0px;fill:#d84a46;fill-opacity:1;stroke:none;stroke-width:1px;stroke-linecap:butt;stroke-linejoin:miter;stroke-opacity:1"
       d="m 84.216309,490.70081 q 1.772461,0 2.534179,-0.65918 0.776367,-0.65918 0.776367,-2.16797 0,-1.49414 -0.776367,-2.13867 -0.761718,-0.64454 -2.534179,-0.64454 h -2.373047 v 5.61036 z m -2.373047,3.89648 v 8.27637 h -5.639649 v -21.87012 h 8.613282 q 4.321289,0 6.328125,1.4502 2.021484,1.45019 2.021484,4.58496 0,2.16797 -1.054688,3.55957 -1.040039,1.3916 -3.149414,2.05078 1.157227,0.26367 2.06543,1.20117 0.922852,0.92285 1.860352,2.8125 l 3.061523,6.21094 h -6.005859 l -2.666016,-5.43457 q -0.805664,-1.64063 -1.640625,-2.24121 -0.820312,-0.60059 -2.197266,-0.60059 z"
       inkscape:connector-curvature="0" />
    <path
       id="path4628"
       style="font-style:normal;font-weight:bold;font-size:30px;line-height:125%;font-family:sans-serif;letter-spacing:0px;word-spacing:0px;fill:#d84a46;fill-opacity:1;stroke:none;stroke-width:1px;stroke-linecap:butt;stroke-linejoin:miter;stroke-opacity:1"
       d="m 109.27979,484.69495 q -2.57813,0 -3.99903,1.90429 -1.4209,1.9043 -1.4209,5.36133 0,3.44238 1.4209,5.34668 1.4209,1.9043 3.99903,1.9043 2.59277,0 4.01367,-1.9043 1.4209,-1.9043 1.4209,-5.34668 0,-3.45703 -1.4209,-5.36133 -1.4209,-1.90429 -4.01367,-1.90429 z m 0,-4.08692 q 5.27343,0 8.26171,3.01758 2.98829,3.01758 2.98829,8.33496 0,5.30274 -2.98829,8.32031 -2.98828,3.01758 -8.26171,3.01758 -5.25879,0 -8.26172,-3.01758 -2.988285,-3.01757 -2.988285,-8.32031 0,-5.31738 2.988285,-8.33496 3.00293,-3.01758 8.26172,-3.01758 z"
       inkscape:connector-curvature="0" />
    <path
       id="path4630"
       style="font-style:normal;font-weight:bold;font-size:30px;line-height:125%;font-family:sans-serif;letter-spacing:0px;word-spacing:0px;fill:#d84a46;fill-opacity:1;stroke:none;stroke-width:1px;stroke-linecap:butt;stroke-linejoin:miter;stroke-opacity:1"
       d="m 121.3501,481.00354 h 5.66894 l 5.80078,16.14258 5.78614,-16.14258 h 5.66894 l -8.10058,21.87012 h -6.72364 z"
       inkscape:connector-curvature="0" />
    <path
       id="path4632"
       style="font-style:normal;font-weight:bold;font-size:30px;line-height:125%;font-family:sans-serif;letter-spacing:0px;word-spacing:0px;fill:#d84a46;fill-opacity:1;stroke:none;stroke-width:1px;stroke-linecap:butt;stroke-linejoin:miter;stroke-opacity:1"
       d="m 147.16064,481.00354 h 15.21973 v 4.2627 h -9.58008 v 4.07226 h 9.00879 v 4.2627 h -9.00879 v 5.00976 h 9.90235 v 4.2627 h -15.542 z"
       inkscape:connector-curvature="0" />
    <path
       id="path4644"
       style="font-style:normal;font-weight:bold;font-size:30px;line-height:125%;font-family:sans-serif;letter-spacing:0px;word-spacing:0px;fill:#d84a46;fill-opacity:1;stroke:none;stroke-width:1px;stroke-linecap:butt;stroke-linejoin:miter;stroke-opacity:1"
       d="m -388.24222,497.20471 h 5.27344 v 5.66895 h -5.27344 z"
       inkscape:connector-curvature="0" />
    <path
       id="path4646"
       style="font-style:normal;font-weight:bold;font-size:30px;line-height:125%;font-family:sans-serif;letter-spacing:0px;word-spacing:0px;fill:#d84a46;fill-opacity:1;stroke:none;stroke-width:1px;stroke-linecap:butt;stroke-linejoin:miter;stroke-opacity:1"
       d="m -351.47464,481.69202 v 4.6289 q -1.80176,-0.80566 -3.51562,-1.21582 -1.71387,-0.41015 -3.23731,-0.41015 -2.02148,0 -2.98828,0.55664 -0.9668,0.55664 -0.9668,1.72851 0,0.87891 0.64453,1.37696 0.65918,0.48339 2.37305,0.83496 l 2.40234,0.4834 q 3.64747,0.73242 5.18555,2.22656 1.53809,1.49414 1.53809,4.24804 0,3.61817 -2.15332,5.39063 -2.13868,1.75781 -6.54785,1.75781 -2.08008,0 -4.17481,-0.39551 -2.09473,-0.3955 -4.18945,-1.17187 v -4.76074 q 2.09472,1.11328 4.04297,1.68457 1.96289,0.55664 3.77929,0.55664 1.84571,0 2.82715,-0.61524 0.98145,-0.61523 0.98145,-1.75781 0,-1.02539 -0.67383,-1.58203 -0.65918,-0.55664 -2.65137,-0.99609 l -2.18262,-0.4834 q -3.28125,-0.70313 -4.80468,-2.24121 -1.50879,-1.53809 -1.50879,-4.14551 0,-3.2666 2.10937,-5.02442 2.10938,-1.75781 6.06446,-1.75781 1.80175,0 3.70605,0.27832 1.9043,0.26367 3.94043,0.80567 z"
       inkscape:connector-curvature="0" />
    <path
       id="path4648"
       style="font-style:normal;font-weight:bold;font-size:30px;line-height:125%;font-family:sans-serif;letter-spacing:0px;word-spacing:0px;fill:#d84a46;fill-opacity:1;stroke:none;stroke-width:1px;stroke-linecap:butt;stroke-linejoin:miter;stroke-opacity:1"
       d="m -345.07327,481.00354 h 5.63965 v 8.33496 h 8.32031 v -8.33496 h 5.63965 v 21.87012 h -5.63965 v -9.27246 h -8.32031 v 9.27246 h -5.63965 z"
       inkscape:connector-curvature="0" />
    <path
       id="path4650"
       style="font-style:normal;font-weight:bold;font-size:30px;line-height:125%;font-family:sans-serif;letter-spacing:0px;word-spacing:0px;fill:#d84a46;fill-opacity:1;stroke:none;stroke-width:1px;stroke-linecap:butt;stroke-linejoin:miter;stroke-opacity:1"
       d="m -306.66507,498.88928 h -8.81836 l -1.3916,3.98438 h -5.66895 l 8.10059,-21.87012 h 6.72363 l 8.10059,21.87012 h -5.66895 z m -7.41211,-4.05761 h 5.99121 l -2.98828,-8.70118 z"
       inkscape:connector-curvature="0" />
    <path
       id="path4652"
       style="font-style:normal;font-weight:bold;font-size:30px;line-height:125%;font-family:sans-serif;letter-spacing:0px;word-spacing:0px;fill:#d84a46;fill-opacity:1;stroke:none;stroke-width:1px;stroke-linecap:butt;stroke-linejoin:miter;stroke-opacity:1"
       d="m -288.72073,490.70081 q 1.77246,0 2.53418,-0.65918 0.77636,-0.65918 0.77636,-2.16797 0,-1.49414 -0.77636,-2.13867 -0.76172,-0.64454 -2.53418,-0.64454 h -2.37305 v 5.61036 z m -2.37305,3.89648 v 8.27637 h -5.63965 v -21.87012 h 8.61328 q 4.32129,0 6.32813,1.4502 2.02148,1.45019 2.02148,4.58496 0,2.16797 -1.05469,3.55957 -1.04003,1.3916 -3.14941,2.05078 1.15723,0.26367 2.06543,1.20117 0.92285,0.92285 1.86035,2.8125 l 3.06152,6.21094 h -6.00585 l -2.66602,-5.43457 q -0.80566,-1.64063 -1.64063,-2.24121 -0.82031,-0.60059 -2.19726,-0.60059 z"
       inkscape:connector-curvature="0" />
    <path
       id="path4654"
       style="font-style:normal;font-weight:bold;font-size:30px;line-height:125%;font-family:sans-serif;letter-spacing:0px;word-spacing:0px;fill:#d84a46;fill-opacity:1;stroke:none;stroke-width:1px;stroke-linecap:butt;stroke-linejoin:miter;stroke-opacity:1"
       d="m -273.64749,481.00354 h 15.21973 v 4.2627 h -9.58008 v 4.07226 h 9.00879 v 4.2627 h -9.00879 v 5.00976 h 9.90234 v 4.2627 h -15.54199 z"
       inkscape:connector-curvature="0" />
    <path
       id="path4170"
       d="m -305.6329,344.50334 c -14.36262,0 -26.27189,10.48709 -28.49881,24.2209 -2.22693,-13.73381 -14.13537,-24.2209 -28.49719,-24.2209 -15.94852,0 -28.87758,12.92905 -28.87758,28.87676 0,6.23849 1.97931,12.01433 5.34251,16.73618 5.235,7.34788 52.03307,54.38706 52.03307,54.38706 0,0 46.58386,-46.92026 51.83596,-54.11338 3.48375,-4.77071 5.53963,-10.65 5.53963,-17.00986 -0.002,-15.94771 -12.92906,-28.87676 -28.87759,-28.87676 z"
       inkscape:connector-curvature="0"
       style="fill:#d84a46;fill-opacity:1" />
    <g
       style="font-style:normal;font-weight:normal;font-size:30px;line-height:125%;font-family:sans-serif;letter-spacing:0px;word-spacing:0px;fill:#d84a46;fill-opacity:1;stroke:none;stroke-width:1px;stroke-linecap:butt;stroke-linejoin:miter;stroke-opacity:1"
       id="text5330">
      <path
         inkscape:connector-curvature="0"
         d="m -9.2627211,176.83286 h 4.9804688 v -14.13575 l -5.1123047,1.05469 v -3.83789 l 5.0830078,-1.05469 h 5.3613281 v 17.97364 h 4.9804688 v 3.89648 H -9.2627211 Z"
         style="font-weight:bold;font-size:30px;fill:#d84a46;fill-opacity:1"
         id="path4657" />
      <path
         inkscape:connector-curvature="0"
         d="m 11.142552,175.06039 h 5.273438 v 5.66895 h -5.273438 z"
         style="font-weight:bold;font-size:30px;fill:#d84a46;fill-opacity:1"
         id="path4659" />
      <path
         inkscape:connector-curvature="0"
         d="m 47.910131,159.5477 v 4.62891 q -1.801758,-0.80567 -3.515625,-1.21583 -1.713868,-0.41015 -3.237305,-0.41015 -2.021485,0 -2.988281,0.55664 -0.966797,0.55664 -0.966797,1.72851 0,0.87891 0.644531,1.37696 0.65918,0.4834 2.373047,0.83496 l 2.402344,0.4834 q 3.647461,0.73242 5.185546,2.22656 1.538086,1.49414 1.538086,4.24805 0,3.61816 -2.15332,5.39062 -2.138672,1.75781 -6.547851,1.75781 -2.080079,0 -4.174805,-0.3955 -2.094727,-0.39551 -4.189453,-1.17188 v -4.76074 q 2.094726,1.11328 4.042968,1.68457 1.962891,0.55664 3.779297,0.55664 1.845703,0 2.827149,-0.61523 0.981445,-0.61524 0.981445,-1.75782 0,-1.02539 -0.673828,-1.58203 -0.65918,-0.55664 -2.651367,-0.99609 l -2.182617,-0.4834 q -3.28125,-0.70313 -4.804688,-2.24121 -1.508789,-1.53809 -1.508789,-4.14551 0,-3.2666 2.109375,-5.02441 2.109375,-1.75782 6.064453,-1.75782 1.801758,0 3.706055,0.27832 1.904297,0.26368 3.94043,0.80567 z"
         style="font-weight:bold;font-size:30px;fill:#d84a46;fill-opacity:1"
         id="path4661" />
      <path
         inkscape:connector-curvature="0"
         d="m 51.704076,158.85922 h 20.15625 v 4.2627 h -7.250977 v 17.60742 h -5.639648 v -17.60742 h -7.265625 z"
         style="font-weight:bold;font-size:30px;fill:#d84a46;fill-opacity:1"
         id="path4663" />
      <path
         inkscape:connector-curvature="0"
         d="m 74.760716,158.85922 h 5.639649 v 13.11035 q 0,2.70996 0.878906,3.88184 0.893555,1.15723 2.900391,1.15723 2.021484,0 2.90039,-1.15723 0.893555,-1.17188 0.893555,-3.88184 v -13.11035 h 5.639649 v 13.11035 q 0,4.64356 -2.329102,6.91407 -2.329102,2.2705 -7.104492,2.2705 -4.760742,0 -7.089844,-2.2705 -2.329102,-2.27051 -2.329102,-6.91407 z"
         style="font-weight:bold;font-size:30px;fill:#d84a46;fill-opacity:1"
         id="path4665" />
      <path
         inkscape:connector-curvature="0"
         d="m 104.77536,163.12192 v 13.34472 h 2.02149 q 3.45703,0 5.27344,-1.71386 1.83105,-1.71387 1.83105,-4.98047 0,-3.25195 -1.8164,-4.95117 -1.81641,-1.69922 -5.28809,-1.69922 z m -5.639644,-4.2627 h 5.947264 q 4.98047,0 7.41211,0.71778 2.44629,0.70312 4.18945,2.40234 1.53809,1.47949 2.28516,3.41309 0.74707,1.93359 0.74707,4.37988 0,2.47558 -0.74707,4.42383 -0.74707,1.93359 -2.28516,3.41308 -1.75781,1.69922 -4.21875,2.41699 -2.46093,0.70313 -7.38281,0.70313 h -5.947264 z"
         style="font-weight:bold;font-size:30px;fill:#d84a46;fill-opacity:1"
         id="path4667" />
      <path
         inkscape:connector-curvature="0"
         d="m 118.82322,158.85922 h 6.16699 l 4.98047,7.79297 4.98047,-7.79297 h 6.18164 l -8.33496,12.65625 v 9.21387 h -5.63965 v -9.21387 z"
         style="font-weight:bold;font-size:30px;fill:#d84a46;fill-opacity:1"
         id="path4669" />
    </g>
    <g
       id="g4176"
       transform="matrix(0.77248793,0,0,0.77248793,-468.22636,-565.73018)"
       style="fill:#d84a46;fill-opacity:1">
      <g
         id="g4178"
         style="fill:#d84a46;fill-opacity:1">
        <path
           id="path4180"
           d="m 721.904,829.035 c -0.904,2.307 1.6,4.434 0.67,8.711 -2.797,4.412 -7.15,10.33 -12.809,12.328 -2.609,0.922 -5.494,1.01 -8.635,-0.268 -34.803,20.855 -78.18,-5.705 -81.08,-41.545 -2.315,-28.619 16.888,-56.576 48.246,-59.635 44.104,-4.304 75.288,42.077 53.608,80.409 z m -80.845,-46.871 c -0.992,1.627 -4.941,9.186 -5.61,17.393 -0.916,11.225 4.105,23.021 9.537,29.174 19.233,21.783 57.411,12.916 66.204,-12.904 10.113,-29.705 -14.859,-54.438 -41.518,-51.055 -13.624,1.73 -23.652,9.251 -28.613,17.392 z"
           inkscape:connector-curvature="0"
           style="clip-rule:evenodd;fill:#d84a46;fill-opacity:1;fill-rule:evenodd" />
      </g>
      <g
         id="g4182"
         style="fill:#d84a46;fill-opacity:1">
        <path
           id="path4184"
           d="m 726.594,841.768 c 5.041,4.164 11.338,9.926 18.764,16.752 4.555,4.186 16.527,12.125 17.422,16.75 1.416,7.336 -7.383,16.309 -14.742,15.412 -6.143,-0.748 -12.736,-11.617 -18.092,-17.422 -6.045,-6.549 -11.955,-12.939 -16.082,-18.762 6.243,-2.244 10.14,-6.836 12.73,-12.73 z"
           inkscape:connector-curvature="0"
           style="clip-rule:evenodd;fill:#d84a46;fill-opacity:1;fill-rule:evenodd" />
      </g>
    </g>
    <text
       xml:space="preserve"
       style="font-style:normal;font-weight:normal;font-size:37.5px;line-height:1.25;font-family:sans-serif;letter-spacing:0px;word-spacing:0px;fill:#d84a46;fill-opacity:1;stroke:none;stroke-width:0.9375"
       x="-412.52908"
       y="503.29837"
       id="text1101"><tspan
         sodipodi:role="line"
         id="tspan1099"
         x="-412.52908"
         y="503.29837"
         style="font-style:normal;font-variant:normal;font-weight:bold;font-stretch:normal;font-size:30px;font-family:sans-serif;-inkscape-font-specification:'sans-serif Bold';fill:#d84a46;fill-opacity:1;stroke-width:0.9375">2</tspan></text>
    <text
       xml:space="preserve"
       style="font-style:normal;font-weight:normal;font-size:37.5px;line-height:1.25;font-family:sans-serif;letter-spacing:0px;word-spacing:0px;fill:#d84a46;fill-opacity:1;stroke:none;stroke-width:0.9375"
       x="-33.337517"
       y="502.87366"
       id="text1101-0"><tspan
         sodipodi:role="line"
         id="tspan1099-4"
         x="-33.337517"
         y="502.87366"
         style="font-style:normal;font-variant:normal;font-weight:bold;font-stretch:normal;font-size:30px;font-family:sans-serif;-inkscape-font-specification:'sans-serif Bold';fill:#d84a46;fill-opacity:1;stroke-width:0.9375">3</tspan></text>
    <text
       xml:space="preserve"
       style="font-style:normal;font-weight:normal;font-size:37.5px;line-height:1.25;font-family:sans-serif;letter-spacing:0px;word-spacing:0px;fill:#000000;fill-opacity:1;stroke:none;stroke-width:0.9375"
       x="136.83496"
       y="610.86584"
       id="text1123"><tspan
         sodipodi:role="line"
         id="tspan1121"
         x="136.83496"
         y="610.86584"
         style="stroke-width:0.9375"> </tspan></text>
  </g>
</svg>
