<?xml version="1.0" encoding="UTF-8" standalone="no"?>
<svg xmlns:dc="http://purl.org/dc/elements/1.1/" xmlns:cc="http://creativecommons.org/ns#" xmlns:rdf="http://www.w3.org/1999/02/22-rdf-syntax-ns#" xmlns:svg="http://www.w3.org/2000/svg" xmlns="http://www.w3.org/2000/svg" version="1.1" id="svg5332" viewBox="0 0 256.00007 256.00002" height="72.248894mm" width="72.248909mm">
  <title id="title7270">Code</title>
  <defs id="defs5334"/>
  <metadata id="metadata5337">
    <rdf:RDF>
      <cc:Work rdf:about="">
        <dc:format>image/svg+xml</dc:format>
        <dc:type rdf:resource="http://purl.org/dc/dcmitype/StillImage"/>
        <dc:title>Code</dc:title>
        <cc:license rdf:resource="http://creativecommons.org/publicdomain/zero/1.0/"/>
        <dc:creator>
          <cc:Agent>
            <dc:title>Josh "Cheeseness" Bush</dc:title>
          </cc:Agent>
        </dc:creator>
        <dc:description>Originally created for the official shirt for the 2014 Open Source Developers' Conference held at Griffith University.</dc:description>
        <dc:subject>
          <rdf:Bag>
            <rdf:li>text editor programming source code</rdf:li>
          </rdf:Bag>
        </dc:subject>
        <dc:date>2014-10-22</dc:date>
        <dc:coverage/>
      </cc:Work>
      <cc:License rdf:about="http://creativecommons.org/publicdomain/zero/1.0/">
        <cc:permits rdf:resource="http://creativecommons.org/ns#Reproduction"/>
        <cc:permits rdf:resource="http://creativecommons.org/ns#Distribution"/>
        <cc:permits rdf:resource="http://creativecommons.org/ns#DerivativeWorks"/>
      </cc:License>
    </rdf:RDF>
  </metadata>
  <g transform="translate(-362.5464,-406.21469)" id="layer1">
    <path id="rect10046" d="m 373.94751,448.7162 c -6.31667,0 -11.40107,5.0871 -11.40107,11.4038 l 0,148.1921 c 0,6.3166 5.0844,11.4011 11.40107,11.4011 l 233.19783,0 c 6.3167,0 11.4011,-5.0845 11.4011,-11.4011 l 0,-148.1921 c 0,-6.3167 -5.0844,-11.4038 -11.4011,-11.4038 l -233.19783,0 z m -5.88619,17.1289 244.97022,0 0,45.779 0,63.009 0,33.8975 c 0,3.2911 -2.6496,5.9407 -5.9408,5.9407 l -233.08863,0 c -3.2912,0 -5.94079,-2.6496 -5.94079,-5.9407 l 0,-33.8975 0,-63.009 0,-45.779 z m 47.04037,6.839 0,1.2804 1.01014,0 0,-1.2804 -1.01014,0 z m 16.46548,0 0,8.5508 1.01015,0 0,-8.5508 -1.01015,0 z m 14.31687,0 0,3.3308 c -0.21252,-0.3664 -0.48203,-0.6377 -0.80812,-0.8136 -0.32244,-0.1796 -0.71144,-0.2703 -1.16578,-0.2703 -0.7438,0 -1.34927,0.2965 -1.81827,0.89 -0.46532,0.5936 -0.69892,1.3752 -0.69892,2.3425 0,0.9673 0.2336,1.7489 0.69892,2.3425 0.469,0.5935 1.07447,0.89 1.81827,0.89 0.45434,0 0.84334,-0.09 1.16578,-0.2648 0.32609,-0.1796 0.5956,-0.4526 0.80812,-0.8191 l 0,0.9228 1.01016,0 0,-8.5508 -1.01016,0 z m 30.3537,0 0,1.2804 1.0129,0 0,-1.2804 -1.0129,0 z m 3.1233,0 0,8.5508 1.0102,0 0,-8.5508 -1.0102,0 z m 3.1206,0 0,1.2804 1.0101,0 0,-1.2804 -1.0101,0 z m 7.5406,0 0,1.2804 1.0102,0 0,-1.2804 -1.0102,0 z m 19.4605,0 0,8.5508 1.0183,0 0,-3.4782 c 0,-0.6009 0.1572,-1.0744 0.4723,-1.4224 0.3151,-0.3481 0.7454,-0.5242 1.2914,-0.5242 0.4543,0 0.7939,0.1447 1.0211,0.4341 0.2271,0.2895 0.3412,0.7279 0.3412,1.3105 l 0,3.6802 1.0129,0 0,-3.713 c 0,-0.8501 -0.1833,-1.4942 -0.546,-1.9302 -0.3628,-0.4397 -0.8955,-0.6607 -1.6026,-0.6607 -0.4287,0 -0.8087,0.092 -1.1385,0.2758 -0.3261,0.1832 -0.61,0.4599 -0.8518,0.8299 l 0,-3.3526 -1.0183,0 z m -122.56432,0.3467 -3.41268,5.1982 0,1.073 3.7048,0 0,1.9329 1.10572,0 0,-1.9329 1.17123,0 0,-0.9228 -1.17123,0 0,-5.3484 -1.39784,0 z m 72.58902,0 0,3.0496 0.93645,0 0,-3.0496 -0.93645,0 z m 2.07764,0 0,3.0496 0.93644,0 0,-3.0496 -0.93644,0 z m 55.10516,0 0,3.0496 0.9337,0 0,-3.0496 -0.9337,0 z m 2.0777,0 0,3.0496 0.9337,0 0,-3.0496 -0.9337,0 z m -110.12031,0.1258 -0.55968,2.2824 -1.98481,0 0,0.8463 1.76912,0 -0.4614,1.8347 -1.93293,0 0,0.8408 1.73091,0 -0.57333,2.2743 0.88457,0 0.56787,-2.2743 1.61078,0 -0.56787,2.2743 0.87911,0 0.57332,-2.2743 1.96025,0 0,-0.8408 -1.74729,0 0.45046,-1.8347 1.93022,0 0,-0.8463 -1.71453,0 0.56514,-2.2824 -0.87911,0 -0.57606,2.2824 -1.60533,0 0.57061,-2.2824 -0.89002,0 z m 63.15641,0.1774 0,1.7473 -0.7426,0 0,0.7862 0.7426,0 0,3.3418 c 0,0.7694 0.1482,1.2985 0.445,1.5916 0.2968,0.2895 0.8358,0.4342 1.6162,0.4342 l 1.0375,0 0,-0.8464 -1.0375,0 c -0.4213,0 -0.7016,-0.07 -0.8408,-0.2129 -0.1356,-0.1429 -0.2048,-0.4645 -0.2048,-0.9665 l 0,-3.3418 2.0831,0 0,-0.7862 -2.0831,0 0,-1.7473 -1.0156,0 z m 13.7817,0 0,1.7473 -0.7398,0 0,0.7862 0.7398,0 0,3.3418 c 0,0.7694 0.151,1.2985 0.4478,1.5916 0.2968,0.2895 0.8331,0.4342 1.6135,0.4342 l 1.0402,0 0,-0.8464 -1.0402,0 c -0.4214,0 -0.7017,-0.07 -0.8409,-0.2129 -0.1356,-0.1429 -0.202,-0.4645 -0.202,-0.9665 l 0,-3.3418 2.0831,0 0,-0.7862 -2.0831,0 0,-1.7473 -1.0184,0 z m -98.3752,0.6635 0,4.3818 -2.80386,0 2.80386,-4.3818 z m 33.97937,0.9336 c -0.42871,0 -0.80872,0.092 -1.13848,0.2758 -0.3261,0.1833 -0.60998,0.4599 -0.8518,0.8299 l 0,-0.9555 -1.01562,0 0,6.1538 1.01562,0 0,-3.4783 c 0,-0.6009 0.1572,-1.0743 0.47231,-1.4224 0.3151,-0.3481 0.74815,-0.5242 1.29409,-0.5242 0.45434,0 0.7939,0.1447 1.02107,0.4342 0.22717,0.2895 0.34127,0.7278 0.34127,1.3105 l 0,3.6802 1.01014,0 0,-3.7131 c 0,-0.85 -0.18055,-1.4941 -0.54329,-1.9301 -0.36274,-0.4398 -0.89816,-0.6608 -1.60531,-0.6608 z m 6.8308,0 c -0.95996,0 -1.71548,0.2876 -2.26874,0.8628 -0.54961,0.5752 -0.82451,1.3658 -0.82451,2.3697 0,0.9894 0.27311,1.7764 0.81905,2.3589 0.54593,0.5826 1.28168,0.8736 2.20868,0.8736 0.34075,0 0.66056,-0.032 0.96101,-0.098 0.30412,-0.066 0.59972,-0.1656 0.88184,-0.2976 l 0,-0.9336 c -0.2858,0.1575 -0.576,0.2742 -0.86545,0.3549 -0.2858,0.077 -0.57507,0.1174 -0.8682,0.1174 -0.65585,0 -1.1634,-0.2084 -1.52614,-0.6224 -0.36274,-0.4177 -0.54603,-1.0016 -0.54603,-1.7528 0,-0.751 0.18329,-1.3332 0.54603,-1.7473 0.36274,-0.4176 0.87029,-0.6279 1.52614,-0.6279 0.29313,0 0.5824,0.042 0.8682,0.123 0.28945,0.077 0.57965,0.1946 0.86545,0.3523 l 0,-0.9475 c -0.27846,-0.1286 -0.56867,-0.2215 -0.86545,-0.2839 -0.29679,-0.066 -0.60043,-0.1006 -0.91188,-0.1006 z m 23.53383,0 c -0.92332,0 -1.65728,0.2965 -2.20322,0.89 -0.54228,0.59 -0.81358,1.3896 -0.81358,2.3972 0,0.9745 0.28567,1.7489 0.85726,2.3205 0.57525,0.5717 1.35505,0.8573 2.337,0.8573 0.39206,0 0.77926,-0.042 1.16031,-0.123 0.38106,-0.081 0.75117,-0.1956 1.11391,-0.3495 l 0,-0.9582 c -0.35908,0.1905 -0.7202,0.3334 -1.08661,0.4286 -0.36274,0.095 -0.73916,0.1447 -1.12755,0.1447 -0.67051,0 -1.19516,-0.1833 -1.57256,-0.546 -0.37372,-0.3664 -0.58123,-0.8955 -0.62519,-1.5917 l 4.64943,0 0,-0.4968 c 0,-0.916 -0.24257,-1.6393 -0.72622,-2.1706 -0.47999,-0.5349 -1.1349,-0.8026 -1.96298,-0.8026 z m 44.1683,0 c -0.9234,0 -1.6601,0.2965 -2.206,0.89 -0.5423,0.59 -0.8136,1.3896 -0.8136,2.3972 0,0.9745 0.2857,1.7489 0.8573,2.3205 0.5752,0.5717 1.355,0.8573 2.337,0.8573 0.392,0 0.7792,-0.042 1.1603,-0.123 0.381,-0.081 0.7512,-0.1956 1.1139,-0.3495 l 0,-0.9582 c -0.3591,0.1905 -0.7202,0.3334 -1.0866,0.4286 -0.3627,0.095 -0.7392,0.1447 -1.1275,0.1447 -0.6706,0 -1.1952,-0.1833 -1.5726,-0.546 -0.3737,-0.3664 -0.5812,-0.8955 -0.6252,-1.5917 l 4.6494,0 0,-0.4968 c 0,-0.916 -0.2426,-1.6393 -0.7262,-2.1706 -0.48,-0.5349 -1.1322,-0.8026 -1.9602,-0.8026 z m 6.3038,0 c -0.7547,0 -1.3396,0.1573 -1.75,0.4724 -0.4103,0.315 -0.6142,0.7643 -0.6142,1.3433 0,0.4762 0.1392,0.8499 0.4177,1.1247 0.2784,0.2711 0.7303,0.4742 1.3568,0.6061 l 0.3522,0.082 c 0.6266,0.1356 1.0317,0.2766 1.2149,0.4232 0.1869,0.1465 0.2812,0.3586 0.2812,0.6334 0,0.2967 -0.1284,0.5259 -0.3849,0.6907 -0.2565,0.1613 -0.6239,0.243 -1.1003,0.243 -0.3554,0 -0.7129,-0.049 -1.0756,-0.1448 -0.3628,-0.099 -0.732,-0.2453 -1.1057,-0.4395 l 0,1.0456 c 0.3957,0.1286 0.7721,0.2245 1.1275,0.2867 0.3591,0.066 0.7022,0.098 1.032,0.098 0.7914,0 1.4113,-0.1662 1.862,-0.4996 0.4543,-0.3333 0.6825,-0.7879 0.6825,-1.3596 0,-0.502 -0.1518,-0.89 -0.4559,-1.1685 -0.3005,-0.2821 -0.8108,-0.5012 -1.5289,-0.6551 l -0.344,-0.077 c -0.5423,-0.1203 -0.9043,-0.2476 -1.0839,-0.3796 -0.1795,-0.1355 -0.2703,-0.3196 -0.2703,-0.5542 0,-0.3078 0.1249,-0.5396 0.3741,-0.6935 0.2528,-0.1539 0.631,-0.232 1.133,-0.232 0.3297,0 0.6477,0.039 0.9555,0.1118 0.3078,0.073 0.6043,0.181 0.8901,0.3275 l 0,-0.9554 c -0.2785,-0.1104 -0.5821,-0.1908 -0.9119,-0.2457 -0.3298,-0.055 -0.6801,-0.085 -1.0539,-0.085 z m -86.92495,0.1502 0,6.1538 1.01014,0 0,-6.1538 -1.01014,0 z m 19.48229,0 0,3.7267 c 0,0.8464 0.18236,1.4877 0.54875,1.9275 0.36641,0.4396 0.90363,0.6606 1.61079,0.6606 0.42869,0 0.80511,-0.091 1.12755,-0.2702 0.3261,-0.1833 0.61178,-0.4617 0.85726,-0.8355 l 0,0.9447 1.01016,0 0,-6.1538 -1.01016,0 0,3.4891 c 0,0.6009 -0.159,1.0744 -0.47777,1.4224 -0.3151,0.3481 -0.74541,0.5242 -1.29135,0.5242 -0.45435,0 -0.79664,-0.1447 -1.02382,-0.434 -0.22716,-0.2931 -0.34126,-0.7335 -0.34126,-1.3159 l 0,-3.6858 -1.01015,0 z m 29.98516,0 0,3.7267 c 0,0.8464 0.1851,1.4877 0.5515,1.9275 0.3664,0.4396 0.9036,0.6606 1.6108,0.6606 0.4287,0 0.8023,-0.091 1.1248,-0.2702 0.3261,-0.1833 0.6118,-0.4617 0.8573,-0.8355 l 0,0.9447 1.0128,0 0,-6.1538 -1.0128,0 0,3.4891 c 0,0.6009 -0.1591,1.0744 -0.4778,1.4224 -0.3151,0.3481 -0.7454,0.5242 -1.2914,0.5242 -0.4543,0 -0.7939,-0.1447 -1.0211,-0.434 -0.2271,-0.2931 -0.3412,-0.7335 -0.3412,-1.3159 l 0,-3.6858 -1.0129,0 z m 11.6686,0 0,6.1538 1.0129,0 0,-6.1538 -1.0129,0 z m 6.2439,0 0,6.1538 1.0101,0 0,-6.1538 -1.0101,0 z m 7.5406,0 0,6.1538 1.0102,0 0,-6.1538 -1.0102,0 z m -45.86365,0.6962 c 0.53494,0 0.95628,0.2139 1.26405,0.6388 0.30779,0.4215 0.4614,1.0035 0.4614,1.7473 0,0.7438 -0.15361,1.3278 -0.4614,1.7528 -0.30777,0.4214 -0.72911,0.6335 -1.26405,0.6335 -0.53495,0 -0.95628,-0.2121 -1.26406,-0.6335 -0.30411,-0.425 -0.45593,-1.009 -0.45593,-1.7528 0,-0.7438 0.15182,-1.3258 0.45593,-1.7473 0.30778,-0.4249 0.72911,-0.6388 1.26406,-0.6388 z m 7.40687,0.014 0,0 c 0.49831,0 0.89809,0.1671 1.19854,0.4968 0.30412,0.3298 0.45953,0.7709 0.46685,1.3242 l -3.60378,0 c 0.0513,-0.5789 0.24443,-1.0273 0.58151,-1.346 0.34075,-0.3188 0.79263,-0.4804 1.35688,-0.4804 z m 44.16828,0 0,0 c 0.4983,0 0.8981,0.1671 1.1985,0.4968 0.3041,0.3298 0.4595,0.7709 0.4669,1.3242 l -3.6066,0 c 0.051,-0.5789 0.2445,-1.0273 0.5816,-1.346 0.3407,-0.3188 0.7953,-0.4804 1.3596,-0.4804 z m -86.97145,0.5023 1.59986,0 -0.45046,1.8346 -1.6108,0 0.4614,-1.8346 z m 97.31865,3.5547 0,1.395 1.1603,0 0,-1.395 -1.1603,0 z m -121.90905,7.2595 0,4.1224 c 0.30779,-0.1397 0.60783,-0.2425 0.90095,-0.3085 0.29678,-0.066 0.59325,-0.098 0.89002,-0.098 0.63388,0 1.13699,0.1662 1.50705,0.4996 0.37006,0.3336 0.55421,0.788 0.55421,1.3596 0,0.5715 -0.18415,1.0235 -0.55421,1.3568 -0.37006,0.3334 -0.87317,0.4998 -1.50705,0.4998 -0.39205,0 -0.76214,-0.043 -1.11389,-0.1314 -0.35175,-0.088 -0.69404,-0.2217 -1.0238,-0.4013 l 0,1.1139 c 0.38105,0.1174 0.75029,0.206 1.1057,0.2647 0.35908,0.059 0.70942,0.087 1.05384,0.087 1.00028,0 1.77648,-0.2416 2.32608,-0.7289 0.5496,-0.4909 0.8245,-1.1783 0.8245,-2.0613 0,-0.8574 -0.26771,-1.5373 -0.80265,-2.0393 -0.53495,-0.5019 -1.25992,-0.7535 -2.17592,-0.7535 -0.16123,0 -0.32476,0.014 -0.48597,0.043 -0.16122,0.025 -0.32202,0.066 -0.48324,0.1202 l 0,-2.0094 3.34169,0 0,-0.9364 -4.35731,0 z m 2.97314,13.9236 c -1.03693,0 -1.86343,0.3844 -2.47898,1.1576 -0.61556,0.7693 -0.92279,1.8044 -0.92279,3.1015 0,1.3813 0.25155,2.435 0.75353,3.1641 0.50196,0.7255 1.22693,1.0894 2.17592,1.0894 0.82806,0 1.49196,-0.255 1.99026,-0.7644 0.49832,-0.5092 0.74534,-1.1858 0.74534,-2.0285 0,-0.8609 -0.23805,-1.5413 -0.71802,-2.0395 -0.47633,-0.5021 -1.12766,-0.7535 -1.95206,-0.7535 -0.39205,0 -0.75232,0.087 -1.0784,0.2594 -0.3261,0.1686 -0.59468,0.4128 -0.81086,0.7316 0.0549,-1.0003 0.27324,-1.7468 0.65796,-2.2414 0.38839,-0.4947 0.94896,-0.7425 1.68178,-0.7425 0.27846,0 0.55875,0.034 0.84088,0.1034 0.28579,0.07 0.56788,0.1713 0.84634,0.3031 l 0,-1.0129 c -0.30777,-0.1104 -0.60424,-0.1907 -0.89002,-0.2457 -0.28213,-0.055 -0.56242,-0.082 -0.84088,-0.082 z m 22.19059,0 c -1.28241,0 -2.28587,0.3738 -3.01135,1.1249 -0.72181,0.7475 -1.08386,1.7932 -1.08386,3.1342 0,1.3374 0.36205,2.3802 1.08386,3.1314 0.72548,0.7473 1.72894,1.1221 3.01135,1.1221 0.58624,0 1.13784,-0.078 1.65447,-0.2321 0.51662,-0.1575 0.98825,-0.3865 1.41694,-0.6907 l 0,-3.5246 -2.91306,0 0,0.9118 1.81555,0 0,2.2061 c -0.2455,0.1428 -0.52219,0.247 -0.82996,0.3166 -0.30779,0.066 -0.65907,0.1006 -1.05112,0.1006 -1.00394,0 -1.75765,-0.2804 -2.26329,-0.8409 -0.50196,-0.5607 -0.75351,-1.3942 -0.75351,-2.5007 0,-1.1102 0.25155,-1.9457 0.75351,-2.5063 0.50564,-0.5606 1.25935,-0.841 2.26329,-0.841 0.5093,0 0.99351,0.087 1.45517,0.2621 0.46167,0.1759 0.9001,0.4382 1.31047,0.7863 l 0,-1.1822 c -0.40671,-0.2565 -0.85412,-0.4496 -1.33777,-0.5815 -0.47998,-0.1313 -0.98575,-0.1965 -1.52069,-0.1965 z m 7.22122,2.0476 c -0.32976,0 -0.66753,0.039 -1.01561,0.1118 -0.34808,0.07 -0.70833,0.1739 -1.0784,0.3168 l 0,0.9364 c 0.30778,-0.1685 0.62758,-0.2953 0.96101,-0.3796 0.33343,-0.084 0.67752,-0.1286 1.02926,-0.1286 0.55327,0 0.98178,0.1286 1.28591,0.385 0.30777,0.2527 0.46138,0.6131 0.46138,1.0784 l 0,0.098 -1.41694,0 c -0.91967,0 -1.61231,0.1753 -2.07764,0.527 -0.46167,0.3517 -0.69346,0.8746 -0.69346,1.5671 0,0.5936 0.18416,1.0698 0.55422,1.4251 0.37374,0.3519 0.87683,0.5269 1.50704,0.5269 0.4983,0 0.91964,-0.089 1.26406,-0.2648 0.34442,-0.1795 0.63189,-0.4564 0.86272,-0.83 l 0,0.9337 1.01016,0 0,-3.5109 c 0,-0.9379 -0.21829,-1.6378 -0.65796,-2.0995 -0.43969,-0.4618 -1.10538,-0.6935 -1.99575,-0.6935 z m 7.699,0 c -0.44333,0 -0.82422,0.091 -1.14665,0.2703 -0.32243,0.1796 -0.59913,0.4581 -0.82997,0.8355 l 0,-0.9556 -1.01833,0 0,6.1537 1.01833,0 0,-3.4782 c 0,-0.5973 0.15182,-1.0689 0.45593,-1.417 0.30413,-0.3515 0.71467,-0.5296 1.2313,-0.5296 0.43603,0 0.75762,0.1455 0.96647,0.4313 0.20886,0.2821 0.31397,0.7198 0.31397,1.3133 l 0,3.6802 1.01561,0 0,-3.4782 c 0,-0.6009 0.15182,-1.0744 0.45593,-1.4224 0.30412,-0.3481 0.71827,-0.5242 1.24223,-0.5242 0.42869,0 0.74669,0.1455 0.95554,0.4313 0.20885,0.2858 0.31397,0.7234 0.31397,1.3133 l 0,3.6802 1.01834,0 0,-3.7129 c 0,-0.8281 -0.1761,-1.467 -0.52419,-1.9139 -0.34808,-0.4508 -0.84126,-0.6771 -1.48246,-0.6771 -0.47632,0 -0.89047,0.109 -1.24221,0.325 -0.35175,0.2162 -0.6536,0.5531 -0.90641,1.0074 -0.15023,-0.4324 -0.38382,-0.7639 -0.69892,-0.9911 -0.31145,-0.2271 -0.69146,-0.3413 -1.13848,-0.3413 z m 10.59296,0 c -0.92334,0 -1.66001,0.2991 -2.20596,0.8928 -0.54226,0.5899 -0.81358,1.3868 -0.81358,2.3943 0,0.9747 0.28569,1.7491 0.85726,2.3207 0.57527,0.5716 1.35505,0.8572 2.33701,0.8572 0.39205,0 0.77925,-0.039 1.16032,-0.1203 0.38104,-0.081 0.75115,-0.1983 1.11389,-0.3522 l 0,-0.9582 c -0.35908,0.1906 -0.7202,0.3332 -1.0866,0.4285 -0.36273,0.095 -0.73916,0.1449 -1.12754,0.1449 -0.67052,0 -1.19518,-0.1834 -1.57257,-0.5462 -0.37373,-0.3663 -0.58123,-0.8954 -0.6252,-1.5915 l 4.64943,0 0,-0.497 c 0,-0.916 -0.24257,-1.6391 -0.72622,-2.1704 -0.47999,-0.5349 -1.13217,-0.8028 -1.96024,-0.8028 z m 10.00597,0 c -0.75479,0 -1.36206,0.2874 -1.82372,0.8627 -0.46168,0.5752 -0.69347,1.3408 -0.69347,2.2933 0,0.949 0.23179,1.7098 0.69347,2.2852 0.46166,0.5752 1.06893,0.8627 1.82372,0.8627 0.45434,0 0.84514,-0.088 1.17123,-0.2675 0.3261,-0.1795 0.59381,-0.4508 0.80267,-0.8136 l 0,0.4996 c 0,0.6999 -0.16439,1.2227 -0.49415,1.5671 -0.32977,0.3481 -0.82748,0.5214 -1.49067,0.5214 -0.30045,0 -0.59511,-0.038 -0.88456,-0.1146 -0.28946,-0.077 -0.58232,-0.1965 -0.87911,-0.3577 l 0,0.983 c 0.29679,0.1104 0.60223,0.1916 0.91733,0.2429 0.31511,0.054 0.65202,0.082 1.00742,0.082 0.95997,0 1.67238,-0.2569 2.1377,-0.7699 0.46534,-0.5091 0.69892,-1.2863 0.69892,-2.3343 l 0,-5.392 -1.01288,0 0,0.9336 c -0.20886,-0.3627 -0.47657,-0.6339 -0.80267,-0.8135 -0.32609,-0.1795 -0.71689,-0.2703 -1.17123,-0.2703 z m 7.22943,0 c -0.32977,0 -0.67027,0.039 -1.01835,0.1118 -0.34808,0.07 -0.70562,0.1739 -1.07568,0.3168 l 0,0.9364 c 0.30778,-0.1685 0.62759,-0.2953 0.96101,-0.3796 0.33343,-0.084 0.67479,-0.1286 1.02654,-0.1286 0.55327,0 0.98178,0.1286 1.2859,0.385 0.30777,0.2527 0.46412,0.6131 0.46412,1.0784 l 0,0.098 -1.41968,0 c -0.91966,0 -1.6123,0.1753 -2.07763,0.527 -0.46167,0.3517 -0.69072,0.8746 -0.69072,1.5671 0,0.5936 0.18415,1.0698 0.55421,1.4251 0.37372,0.3519 0.87409,0.5269 1.50431,0.5269 0.49831,0 0.92237,-0.089 1.26678,-0.2648 0.34443,-0.1795 0.63189,-0.4564 0.86273,-0.83 l 0,0.9337 1.01016,0 0,-3.5109 c 0,-0.9379 -0.22101,-1.6378 -0.6607,-2.0995 -0.43969,-0.4618 -1.10265,-0.6935 -1.993,-0.6935 z m 7.69899,0 c -0.44335,0 -0.82695,0.091 -1.14939,0.2703 -0.32243,0.1796 -0.59913,0.4581 -0.82997,0.8355 l 0,-0.9556 -1.0156,0 0,6.1537 1.0156,0 0,-3.4782 c 2e-5,-0.5973 0.15184,-1.0689 0.45595,-1.417 0.30411,-0.3515 0.71466,-0.5296 1.2313,-0.5296 0.43601,0 0.76035,0.1455 0.9692,0.4313 0.20883,0.2821 0.31122,0.7198 0.31122,1.3133 l 0,3.6802 1.01835,0 0,-3.4782 c 0,-0.6009 0.15182,-1.0744 0.45593,-1.4224 0.30412,-0.3481 0.71827,-0.5242 1.24226,-0.5242 0.4286,0 0.7467,0.1455 0.9555,0.4313 0.2089,0.2858 0.314,0.7234 0.314,1.3133 l 0,3.6802 1.0156,0 0,-3.7129 c 0,-0.8281 -0.1734,-1.467 -0.5215,-1.9139 -0.3481,-0.4508 -0.844,-0.6771 -1.4852,-0.6771 -0.47629,0 -0.8877,0.109 -1.23945,0.325 -0.35175,0.2162 -0.65633,0.5531 -0.90914,1.0074 -0.15022,-0.4324 -0.38108,-0.7639 -0.69619,-0.9911 -0.31144,-0.2271 -0.69145,-0.3413 -1.13847,-0.3413 z m 10.59025,0 c -0.9233,0 -1.6573,0.2991 -2.2032,0.8928 -0.5423,0.5899 -0.8136,1.3868 -0.8136,2.3943 0,0.9747 0.2856,1.7491 0.8572,2.3207 0.5753,0.5716 1.3551,0.8572 2.337,0.8572 0.3921,0 0.7766,-0.039 1.1576,-0.1203 0.3811,-0.081 0.7539,-0.1983 1.1167,-0.3522 l 0,-0.9582 c -0.3591,0.1906 -0.723,0.3332 -1.0894,0.4285 -0.3627,0.095 -0.7364,0.1449 -1.1248,0.1449 -0.6705,0 -1.1952,-0.1834 -1.5726,-0.5462 -0.3737,-0.3663 -0.5812,-0.8954 -0.6252,-1.5915 l 4.6495,0 0,-0.497 c 0,-0.916 -0.2426,-1.6391 -0.7262,-2.1704 -0.48,-0.5349 -1.1349,-0.8028 -1.963,-0.8028 z m 4.6057,0.486 0,1.395 1.1603,0 0,-1.395 -1.1603,0 z m -29.87592,0.3604 c 0.54594,0 0.96906,0.2031 1.26951,0.6061 0.30412,0.4031 0.45594,0.9709 0.45594,1.7035 0,0.7291 -0.15182,1.2952 -0.45594,1.6982 -0.30045,0.4032 -0.72357,0.6033 -1.26951,0.6033 -0.54227,0 -0.9654,-0.2001 -1.26952,-0.6033 -0.30045,-0.403 -0.45047,-0.9691 -0.45047,-1.6982 0,-0.7326 0.15002,-1.3004 0.45047,-1.7035 0.30412,-0.403 0.72725,-0.6061 1.26952,-0.6061 z m -10.2435,0.014 0,0 c 0.49831,0 0.89535,0.167 1.1958,0.4968 0.30412,0.3297 0.46227,0.7709 0.46959,1.3241 l -3.60652,0 c 0.0513,-0.5788 0.24443,-1.0271 0.58153,-1.346 0.34075,-0.3187 0.79535,-0.4804 1.3596,-0.4804 z m 35.52462,0 0,0 c 0.4983,0 0.8981,0.167 1.1985,0.4968 0.3042,0.3297 0.4596,0.7709 0.4669,1.3241 l -3.6038,0 c 0.051,-0.5788 0.2444,-1.0271 0.5815,-1.346 0.3408,-0.3187 0.7926,-0.4804 1.3569,-0.4804 z m -83.71163,0.9091 c 0.4983,0 0.89269,0.1697 1.18215,0.5105 0.29312,0.3408 0.43955,0.807 0.43955,1.4005 0,0.59 -0.14643,1.0562 -0.43955,1.4006 -0.28946,0.3408 -0.68385,0.5133 -1.18215,0.5133 -0.49831,0 -0.8945,-0.1725 -1.18761,-0.5133 -0.28946,-0.3444 -0.4341,-0.8106 -0.4341,-1.4006 0,-0.5935 0.14464,-1.0597 0.4341,-1.4005 0.29311,-0.3408 0.6893,-0.5103 1.18761,-0.5105 z m 30.52299,1.4497 1.00469,0 0,0.2266 c 0,0.6595 -0.16978,1.1868 -0.51053,1.5861 -0.33709,0.3957 -0.7881,0.5952 -1.34869,0.5952 -0.40671,0 -0.72831,-0.1048 -0.96647,-0.3139 -0.2345,-0.2125 -0.35219,-0.4982 -0.35219,-0.8573 0,-0.4507 0.1572,-0.7687 0.47232,-0.9556 0.3151,-0.1869 0.88379,-0.2811 1.70087,-0.2811 z m 35.52462,0 1.00742,0 0,0.2266 c 0,0.6595 -0.17251,1.1868 -0.51327,1.5861 -0.33709,0.3957 -0.78536,0.5952 -1.34596,0.5952 -0.4067,0 -0.72831,-0.1048 -0.96648,-0.3139 -0.23448,-0.2125 -0.35218,-0.4982 -0.35218,-0.8573 0,-0.4507 0.15721,-0.7687 0.47231,-0.9556 0.31512,-0.1869 0.88107,-0.2811 1.69816,-0.2811 z m 22.25882,1.6981 0,0.9446 -0.4504,1.761 0.7098,0 0.9009,-1.761 0,-0.9446 -1.1603,0 z m -91.09937,7.2595 0,0.9364 3.94232,0 -2.80385,7.2704 1.16031,0 2.97859,-7.7318 0,-0.475 -5.27737,0 z m 21.78927,13.7243 0,1.2805 1.01016,0 0,-1.2805 -1.01016,0 z m 36.14163,0 0,1.2805 1.01288,0 0,-1.2805 -1.01288,0 z m 14.66359,0 0,1.2805 1.01288,0 0,-1.2805 -1.01288,0 z m 56.28458,0 0,8.5509 1.0184,0 0,-3.4783 c 0,-0.6009 0.1572,-1.0741 0.4723,-1.4223 0.3151,-0.3479 0.7454,-0.5215 1.2914,-0.5215 0.4543,0 0.7939,0.1447 1.021,0.4342 0.2272,0.2892 0.3413,0.725 0.3413,1.3077 l 0,3.6802 1.0102,0 0,-3.713 c 0,-0.8501 -0.1806,-1.4942 -0.5434,-1.9302 -0.3627,-0.4396 -0.8981,-0.6606 -1.6053,-0.6608 -0.4287,0 -0.8059,0.092 -1.1357,0.2758 -0.3261,0.1833 -0.61,0.4599 -0.8518,0.83 l 0,-3.3527 -1.0184,0 z m 71.0465,0 c -0.9123,0 -1.5232,0.1356 -1.8346,0.4068 -0.3078,0.2676 -0.4614,0.8066 -0.4614,1.6163 l 0,1.3187 c 0,0.546 -0.1,0.926 -0.2976,1.1384 -0.1942,0.2089 -0.5517,0.314 -1.0757,0.314 l -0.3358,0 0,0.7836 0.3358,0 c 0.5203,0 0.8778,0.1063 1.0757,0.3194 0.1979,0.2125 0.2976,0.5961 0.2976,1.1493 l 0,1.3133 c 0,0.8097 0.1536,1.3507 0.4614,1.6217 0.3114,0.2712 0.9223,0.4068 1.8346,0.4068 l 0.3413,0 0,-0.7917 -0.374,0 c -0.5166,0 -0.8526,-0.082 -1.0102,-0.2431 -0.1575,-0.1612 -0.2375,-0.4989 -0.2375,-1.0155 l 0,-1.3624 c 0,-0.5717 -0.081,-0.9875 -0.2457,-1.2477 -0.1649,-0.2601 -0.4506,-0.4417 -0.8573,-0.5405 0.4031,-0.092 0.6869,-0.2668 0.8518,-0.527 0.1686,-0.2601 0.2512,-0.6778 0.2512,-1.2531 l 0,-1.3624 c 0,-0.5166 0.08,-0.8542 0.2375,-1.0155 0.1576,-0.161 0.4936,-0.2431 1.0102,-0.2431 l 0.374,0 0,-0.7863 -0.3413,0 z m -130.17862,0.014 c -0.55326,0.8647 -0.96561,1.711 -1.23675,2.5391 -0.27114,0.828 -0.4068,1.6508 -0.4068,2.468 0,0.8206 0.13559,1.6473 0.4068,2.479 0.2748,0.8317 0.68715,1.678 1.23675,2.5391 l 0.87911,0 c -0.48731,-0.839 -0.85023,-1.6728 -1.09206,-2.5009 -0.23816,-0.8317 -0.35765,-1.6708 -0.35765,-2.5172 0,-0.8464 0.11952,-1.6818 0.35765,-2.5062 0.23817,-0.8244 0.60108,-1.6581 1.09206,-2.5009 l -0.87911,0 z m 117.68822,0 c 0.4873,0.8428 0.8485,1.6765 1.0866,2.5009 0.2419,0.8244 0.3631,1.6598 0.3631,2.5062 0,0.8464 -0.1213,1.6855 -0.3631,2.5172 -0.2381,0.8281 -0.5993,1.6619 -1.0866,2.5009 l 0.8791,0 c 0.5496,-0.8611 0.9602,-1.7074 1.2313,-2.5391 0.2748,-0.8317 0.4123,-1.6584 0.4123,-2.479 0,-0.8172 -0.1374,-1.64 -0.4123,-2.468 -0.2711,-0.8281 -0.6817,-1.6744 -1.2313,-2.5391 l -0.8791,0 z m -184.77874,0.1885 c -0.81341,0 -1.45576,0.1895 -1.92475,0.5706 -0.46534,0.381 -0.69891,0.9002 -0.69891,1.556 0,0.469 0.13209,0.8645 0.39586,1.1904 0.26748,0.3261 0.64031,0.549 1.11663,0.6662 -0.53495,0.1244 -0.95269,0.3689 -1.25314,0.7317 -0.30045,0.3627 -0.45047,0.8057 -0.45047,1.3296 0,0.7951 0.24257,1.4042 0.72622,1.8292 0.48731,0.4251 1.18355,0.6388 2.08856,0.6388 0.90501,0 1.59944,-0.2137 2.08309,-0.6388 0.48733,-0.425 0.72896,-1.0341 0.72896,-1.8292 0,-0.5239 -0.15003,-0.9669 -0.45048,-1.3296 -0.29679,-0.3628 -0.71273,-0.6071 -1.24768,-0.7317 0.47266,-0.1174 0.8419,-0.3401 1.10571,-0.6662 0.26748,-0.3259 0.40134,-0.7214 0.40134,-1.1904 0,-0.6558 -0.2336,-1.175 -0.69892,-1.556 -0.46532,-0.3811 -1.10495,-0.5706 -1.92202,-0.5706 z m 149.97214,0 0,2.0693 -1.8483,-1.1138 -0.3167,0.5432 1.9712,1.0676 -1.9712,1.0701 0.3167,0.5406 1.8483,-1.1166 0,2.0721 0.6253,0 0,-2.0721 1.8483,1.1166 0.3166,-0.5406 -1.9711,-1.0701 1.9711,-1.0676 -0.3166,-0.5432 -1.8483,1.1138 0,-2.0693 -0.6253,0 z m 5.6269,0 0,2.0693 -1.8456,-1.1138 -0.3194,0.5432 1.9739,1.0676 -1.9739,1.0701 0.3194,0.5406 1.8456,-1.1166 0,2.0721 0.6279,0 0,-2.0721 1.8456,1.1166 0.3194,-0.5406 -1.9739,-1.0701 1.9739,-1.0676 -0.3194,-0.5432 -1.8456,1.1138 0,-2.0693 -0.6279,0 z m -126.21725,0.4504 0,1.7472 -0.73987,0 0,0.7863 0.73987,0 0,3.3418 c 0,0.7693 0.15097,1.2985 0.44774,1.5916 0.29679,0.2893 0.83308,0.4342 1.61352,0.4342 l 1.04018,0 0,-0.8464 -1.04018,0 c -0.42136,0 -0.70166,-0.07 -0.84088,-0.2129 -0.13559,-0.1429 -0.20203,-0.4647 -0.20203,-0.9665 l 0,-3.3418 2.08309,0 0,-0.7863 -2.08309,0 0,-1.7472 -1.01835,0 z m 50.80795,0 0,1.7472 -0.7426,0 0,0.7863 0.7426,0 0,3.3418 c 0,0.7693 0.1482,1.2985 0.445,1.5916 0.2968,0.2893 0.8331,0.4342 1.6135,0.4342 l 1.0402,0 0,-0.8464 -1.0402,0 c -0.4213,0 -0.7016,-0.07 -0.8408,-0.2129 -0.1356,-0.1429 -0.2021,-0.4647 -0.2021,-0.9665 l 0,-3.3418 2.0831,0 0,-0.7863 -2.0831,0 0,-1.7472 -1.0156,0 z m -80.18974,0.4287 c 0.47632,0 0.84643,0.1202 1.11389,0.3575 0.27114,0.2381 0.4068,0.5688 0.4068,0.9939 0,0.4251 -0.13559,0.7557 -0.4068,0.9937 -0.26746,0.2382 -0.63757,0.3577 -1.11389,0.3577 -0.47999,0 -0.85462,-0.1188 -1.12208,-0.3577 -0.26382,-0.238 -0.39588,-0.5686 -0.39588,-0.9937 0,-0.4251 0.13209,-0.7558 0.39588,-0.9939 0.26746,-0.2382 0.64209,-0.3575 1.12208,-0.3575 z m 25.22378,1.1684 c -0.42868,0 -0.8087,0.092 -1.13846,0.2758 -0.3261,0.1833 -0.60999,0.4598 -0.85181,0.8299 l 0,-0.9556 -1.01834,0 0,6.1539 1.01834,0 0,-3.4783 c 0,-0.6009 0.15721,-1.0742 0.47231,-1.4224 0.31511,-0.3479 0.74542,-0.5214 1.29136,-0.5214 0.45434,0 0.79391,0.1445 1.02108,0.434 0.22717,0.2892 0.34126,0.7252 0.34126,1.3078 l 0,3.6803 1.01289,0 0,-3.7131 c 0,-0.8502 -0.18329,-1.4941 -0.54602,-1.9301 -0.36274,-0.4396 -0.89544,-0.6608 -1.60261,-0.6608 z m 15.13592,0 c -0.44335,0 -0.82696,0.091 -1.14939,0.2704 -0.32244,0.1794 -0.59913,0.4579 -0.82997,0.8353 l 0,-0.9556 -1.01561,0 0,6.1539 1.01561,0 0,-3.4783 c 0,-0.5971 0.15182,-1.0689 0.45593,-1.4169 0.30412,-0.3519 0.71467,-0.5269 1.2313,-0.5269 0.43602,0 0.75762,0.1429 0.96647,0.4286 0.20885,0.2822 0.31397,0.7197 0.31397,1.3132 l 0,3.6803 1.01561,0 0,-3.4783 c 0,-0.6009 0.15455,-1.0742 0.45867,-1.4224 0.30411,-0.3479 0.71552,-0.5214 1.23947,-0.5214 0.42871,0 0.74944,0.1429 0.95829,0.4286 0.20885,0.2858 0.31124,0.7234 0.31124,1.3132 l 0,3.6803 1.01834,0 0,-3.7131 c 0,-0.8281 -0.17338,-1.4667 -0.52145,-1.9138 -0.34809,-0.4506 -0.844,-0.6771 -1.4852,-0.6771 -0.47632,0 -0.89047,0.109 -1.24223,0.3249 -0.35173,0.2161 -0.65358,0.553 -0.90639,1.0074 -0.15023,-0.4324 -0.38382,-0.7639 -0.69892,-0.9911 -0.31145,-0.2271 -0.68873,-0.3412 -1.13574,-0.3412 z m 10.17251,0 c -0.32976,0 -0.67026,0.039 -1.01835,0.1118 -0.34808,0.07 -0.7056,0.1738 -1.07568,0.3167 l 0,0.9365 c 0.30779,-0.1686 0.62759,-0.2952 0.96101,-0.3795 0.33343,-0.084 0.67753,-0.1286 1.02927,-0.1286 0.55328,0 0.98178,0.1286 1.2859,0.385 0.30778,0.2528 0.46139,0.613 0.46139,1.0784 l 0,0.098 -1.41967,0 c -0.91967,0 -1.61231,0.175 -2.07764,0.5268 -0.46166,0.3517 -0.69072,0.8745 -0.69072,1.5671 0,0.5936 0.18415,1.0698 0.55421,1.4251 0.37374,0.3517 0.87683,0.527 1.50705,0.527 0.4983,0 0.91963,-0.09 1.26404,-0.2647 0.34443,-0.1795 0.63191,-0.4563 0.86273,-0.8301 l 0,0.9338 1.01016,0 0,-3.5111 c 0,-0.9378 -0.21829,-1.6377 -0.65797,-2.0994 -0.43968,-0.4616 -1.10537,-0.6935 -1.99573,-0.6935 z m 10.8332,0 c -0.42868,0 -0.8087,0.092 -1.13846,0.2758 -0.3261,0.1833 -0.60999,0.4598 -0.85181,0.8299 l 0,-0.9556 -1.01561,0 0,6.1539 1.01561,0 0,-3.4783 c 0,-0.6009 0.15721,-1.0742 0.47231,-1.4224 0.31511,-0.3479 0.74542,-0.5214 1.29136,-0.5214 0.45434,0 0.79664,0.1445 1.0238,0.434 0.22718,0.2892 0.33854,0.7252 0.33854,1.3078 l 0,3.6803 1.01289,0 0,-3.7131 c 0,-0.8502 -0.18056,-1.4941 -0.5433,-1.9301 -0.36274,-0.4396 -0.89816,-0.6608 -1.60533,-0.6608 z m 14.66359,0 c -0.42868,0 -0.8087,0.092 -1.13846,0.2758 -0.3261,0.1833 -0.60997,0.4598 -0.8518,0.8299 l 0,-0.9556 -1.01835,0 0,6.1539 1.01835,0 0,-3.4783 c 0,-0.6009 0.1572,-1.0742 0.47231,-1.4224 0.3151,-0.3479 0.74541,-0.5214 1.29136,-0.5214 0.45434,0 0.79663,0.1445 1.02381,0.434 0.22712,0.2892 0.33852,0.7252 0.33852,1.3078 l 0,3.6803 1.0129,0 0,-3.7131 c 0,-0.8502 -0.1833,-1.4941 -0.546,-1.9301 -0.3628,-0.4396 -0.89547,-0.6608 -1.60264,-0.6608 z m 14.33874,0 c -0.3298,0 -0.6703,0.039 -1.0184,0.1118 -0.348,0.07 -0.7056,0.1738 -1.0756,0.3167 l 0,0.9365 c 0.3077,-0.1686 0.6275,-0.2952 0.961,-0.3795 0.3334,-0.084 0.6775,-0.1286 1.0292,-0.1286 0.5533,0 0.9818,0.1286 1.2859,0.385 0.3078,0.2528 0.4614,0.613 0.4614,1.0784 l 0,0.098 -1.4197,0 c -0.9196,0 -1.6123,0.175 -2.0776,0.5268 -0.4617,0.3517 -0.6907,0.8745 -0.6907,1.5671 0,0.5936 0.1841,1.0698 0.5542,1.4251 0.3737,0.3517 0.8768,0.527 1.507,0.527 0.4984,0 0.9197,-0.09 1.2641,-0.2647 0.3444,-0.1795 0.6319,-0.4563 0.8627,-0.8301 l 0,0.9338 1.0102,0 0,-3.5111 c 0,-0.9378 -0.2183,-1.6377 -0.658,-2.0994 -0.4397,-0.4616 -1.1054,-0.6935 -1.9957,-0.6935 z m 7.7918,0 c -0.4873,0 -0.9014,0.092 -1.2422,0.2758 -0.3408,0.1795 -0.6175,0.4561 -0.83,0.8299 l 0,-0.9556 -1.0156,0 0,6.1539 1.0156,0 0,-3.2408 c 0,-0.6962 0.1546,-1.2296 0.4587,-1.5998 0.3078,-0.3736 0.7471,-0.5597 1.3187,-0.5597 0.1612,0 0.3076,0.017 0.4395,0.049 0.1356,0.029 0.2604,0.076 0.374,0.142 l -0.01,-1.0374 c -0.1026,-0.018 -0.1969,-0.034 -0.2812,-0.041 -0.084,-0.014 -0.1624,-0.017 -0.232,-0.017 z m 3.47,0 c -0.7548,0 -1.3648,0.2875 -1.8264,0.8628 -0.4617,0.5753 -0.6908,1.3405 -0.6908,2.2932 0,0.949 0.2291,1.71 0.6908,2.2852 0.4616,0.5754 1.0716,0.8628 1.8264,0.8628 0.4544,0 0.8424,-0.088 1.1685,-0.2676 0.3261,-0.1795 0.5938,-0.4509 0.8027,-0.8137 l 0,0.4998 c 0,0.6997 -0.1644,1.2225 -0.4942,1.5669 -0.3297,0.3481 -0.8247,0.5216 -1.4879,0.5216 -0.3004,0 -0.5978,-0.038 -0.8873,-0.1147 -0.2895,-0.077 -0.5823,-0.1964 -0.8791,-0.3577 l 0,0.9829 c 0.2968,0.1104 0.6049,0.1917 0.9201,0.243 0.3151,0.054 0.6492,0.084 1.0047,0.084 0.9599,0 1.6723,-0.2569 2.1376,-0.7699 0.4654,-0.5092 0.699,-1.2863 0.699,-2.3342 l 0,-5.392 -1.0129,0 0,0.9336 c -0.2089,-0.3628 -0.4766,-0.6341 -0.8027,-0.8136 -0.3261,-0.1794 -0.7141,-0.2702 -1.1685,-0.2702 l 0,0 z m 7.7209,0 c -0.96,0 -1.7155,0.2875 -2.2688,0.8628 -0.5496,0.5753 -0.8245,1.3658 -0.8245,2.3697 0,0.9894 0.2731,1.7764 0.8191,2.3588 0.5459,0.5827 1.2816,0.8737 2.2086,0.8737 0.3408,0 0.6606,-0.029 0.961,-0.095 0.3042,-0.066 0.597,-0.1655 0.8792,-0.2975 l 0,-0.9337 c -0.2858,0.1575 -0.5733,0.277 -0.8628,0.3575 -0.2858,0.077 -0.575,0.1147 -0.8681,0.1147 -0.6559,0 -1.1662,-0.2087 -1.5289,-0.6225 -0.3628,-0.4178 -0.5433,-1.0043 -0.5433,-1.7555 0,-0.7511 0.1805,-1.3333 0.5433,-1.7473 0.3627,-0.4177 0.873,-0.6253 1.5289,-0.6253 0.2931,0 0.5823,0.042 0.8681,0.123 0.2895,0.077 0.577,0.1948 0.8628,0.3523 l 0,-0.9475 c -0.2785,-0.1286 -0.566,-0.2215 -0.8628,-0.2839 -0.2968,-0.066 -0.6004,-0.1006 -0.9118,-0.1006 l 0,0 z m 13.3667,0 c -0.9599,0 -1.7182,0.2875 -2.2714,0.8628 -0.5496,0.5753 -0.8245,1.3658 -0.8245,2.3697 0,0.9894 0.2731,1.7764 0.819,2.3588 0.5459,0.5827 1.2844,0.8737 2.2114,0.8737 0.3408,0 0.6606,-0.029 0.961,-0.095 0.3041,-0.066 0.597,-0.1655 0.8791,-0.2975 l 0,-0.9337 c -0.2858,0.1575 -0.5732,0.277 -0.8627,0.3575 -0.2858,0.077 -0.5751,0.1147 -0.8682,0.1147 -0.6558,0 -1.1661,-0.2087 -1.5288,-0.6225 -0.3628,-0.4178 -0.5434,-1.0043 -0.5434,-1.7555 0,-0.7511 0.1806,-1.3333 0.5434,-1.7473 0.3627,-0.4177 0.873,-0.6253 1.5288,-0.6253 0.2931,0 0.5824,0.042 0.8682,0.123 0.2895,0.077 0.5769,0.1948 0.8627,0.3523 l 0,-0.9475 c -0.2784,-0.1286 -0.5659,-0.2215 -0.8627,-0.2839 -0.2968,-0.066 -0.6004,-0.1006 -0.9119,-0.1006 l 0,0 z m 12.8481,0 c -0.3298,0 -0.6675,0.039 -1.0156,0.1118 -0.3481,0.07 -0.7084,0.1738 -1.0784,0.3167 l 0,0.9365 c 0.3077,-0.1686 0.6303,-0.2952 0.9637,-0.3795 0.3334,-0.084 0.6748,-0.1286 1.0265,-0.1286 0.5533,0 0.9818,0.1286 1.2859,0.385 0.3078,0.2528 0.4614,0.613 0.4614,1.0784 l 0,0.098 -1.4169,0 c -0.9197,0 -1.6123,0.175 -2.0777,0.5268 -0.4616,0.3517 -0.6934,0.8745 -0.6934,1.5671 0,0.5936 0.1869,1.0698 0.5569,1.4251 0.3738,0.3517 0.8741,0.527 1.5044,0.527 0.4983,0 0.9196,-0.09 1.264,-0.2647 0.3444,-0.1795 0.6319,-0.4563 0.8627,-0.8301 l 0,0.9338 1.0129,0 0,-3.5111 c 0,-0.9378 -0.221,-1.6377 -0.6607,-2.0994 -0.4397,-0.4616 -1.1054,-0.6935 -1.9957,-0.6935 z m 7.7945,0 c -0.4873,0 -0.9014,0.092 -1.2422,0.2758 -0.3407,0.1795 -0.6174,0.4561 -0.8299,0.8299 l 0,-0.9556 -1.0156,0 0,6.1539 1.0156,0 0,-3.2408 c 0,-0.6962 0.1518,-1.2296 0.4559,-1.5998 0.3078,-0.3736 0.7471,-0.5597 1.3187,-0.5597 0.1612,0 0.3076,0.017 0.4395,0.049 0.1356,0.029 0.2604,0.076 0.374,0.142 l -0.01,-1.0374 c -0.1026,-0.018 -0.1942,-0.034 -0.2784,-0.041 -0.084,-0.014 -0.1625,-0.017 -0.2321,-0.017 z m 18.5869,0 c -0.3298,0 -0.6676,0.039 -1.0157,0.1118 -0.348,0.07 -0.7083,0.1738 -1.0784,0.3167 l 0,0.9365 c 0.3078,-0.1686 0.6303,-0.2952 0.9638,-0.3795 0.3334,-0.084 0.6748,-0.1286 1.0265,-0.1286 0.5533,0 0.9818,0.1286 1.2859,0.385 0.3078,0.2528 0.4614,0.613 0.4614,1.0784 l 0,0.098 -1.4169,0 c -0.9197,0 -1.6124,0.175 -2.0777,0.5268 -0.4617,0.3517 -0.6934,0.8745 -0.6934,1.5671 0,0.5936 0.1868,1.0698 0.5569,1.4251 0.3737,0.3517 0.8741,0.527 1.5043,0.527 0.4983,0 0.9197,-0.09 1.2641,-0.2647 0.3444,-0.1795 0.6319,-0.4563 0.8627,-0.8301 l 0,0.9338 1.0129,0 0,-3.5111 c 0,-0.9378 -0.221,-1.6377 -0.6607,-2.0994 -0.4397,-0.4616 -1.1054,-0.6935 -1.9957,-0.6935 z m 7.7945,0 c -0.4873,0 -0.9014,0.092 -1.2422,0.2758 -0.3408,0.1795 -0.6175,0.4561 -0.83,0.8299 l 0,-0.9556 -1.0156,0 0,6.1539 1.0156,0 0,-3.2408 c 0,-0.6962 0.1519,-1.2296 0.456,-1.5998 0.3077,-0.3736 0.747,-0.5597 1.3186,-0.5597 0.1612,0 0.3077,0.017 0.4396,0.049 0.1356,0.029 0.2604,0.076 0.374,0.142 l -0.01,-1.0374 c -0.1026,-0.018 -0.1969,-0.034 -0.2812,-0.041 -0.084,-0.014 -0.1597,-0.017 -0.2293,-0.017 z m 3.4673,0 c -0.7548,0 -1.3621,0.2875 -1.8237,0.8628 -0.4617,0.5753 -0.6935,1.3405 -0.6935,2.2932 0,0.949 0.2318,1.71 0.6935,2.2852 0.4616,0.5754 1.0689,0.8628 1.8237,0.8628 0.4543,0 0.8451,-0.088 1.1712,-0.2676 0.3261,-0.1795 0.5938,-0.4509 0.8027,-0.8137 l 0,0.4998 c 0,0.6997 -0.1644,1.2225 -0.4942,1.5669 -0.3297,0.3481 -0.8274,0.5216 -1.4906,0.5216 -0.3005,0 -0.5951,-0.038 -0.8846,-0.1147 -0.2894,-0.077 -0.5823,-0.1964 -0.8791,-0.3577 l 0,0.9829 c 0.2968,0.1104 0.6022,0.1917 0.9173,0.243 0.3151,0.054 0.652,0.084 1.0075,0.084 0.9599,0 1.6723,-0.2569 2.1377,-0.7699 0.4653,-0.5092 0.6961,-1.2863 0.6961,-2.3342 l 0,-5.392 -1.0101,0 0,0.9336 c -0.2089,-0.3628 -0.4766,-0.6341 -0.8027,-0.8136 -0.3261,-0.1794 -0.7169,-0.2702 -1.1712,-0.2702 l 0,0 z m -154.0756,0.1501 0,6.1539 1.01016,0 0,-6.1539 -1.01016,0 z m 36.14163,0 0,6.1539 1.01288,0 0,-6.1539 -1.01288,0 z m 14.66359,0 0,6.1539 1.01288,0 0,-6.1539 -1.01288,0 z m 107.61398,0 2.307,6.1539 1.3733,0 2.3097,-6.1539 -1.073,0 -1.922,5.1655 -1.9247,-5.1655 -1.0703,0 z m -75.6768,0.6963 c 0.546,0 0.9691,0.2031 1.2695,0.6061 0.3042,0.403 0.456,0.9707 0.456,1.7035 0,0.7292 -0.1518,1.2953 -0.456,1.6983 -0.3004,0.403 -0.7235,0.6033 -1.2695,0.6033 -0.5422,0 -0.9654,-0.2003 -1.2695,-0.6033 -0.3004,-0.403 -0.4505,-0.9691 -0.4505,-1.6983 0,-0.7328 0.1501,-1.3005 0.4505,-1.7035 0.3041,-0.403 0.7273,-0.6061 1.2695,-0.6061 z m 71.5816,0 c 0.546,0 0.9691,0.2031 1.2695,0.6061 0.3042,0.403 0.456,0.9707 0.456,1.7035 0,0.7292 -0.1518,1.2953 -0.456,1.6983 -0.3004,0.403 -0.7235,0.6033 -1.2695,0.6033 -0.5422,0 -0.9654,-0.2003 -1.2695,-0.6033 -0.3004,-0.403 -0.4505,-0.9691 -0.4505,-1.6983 0,-0.7328 0.1501,-1.3005 0.4505,-1.7035 0.3041,-0.403 0.7273,-0.6061 1.2695,-0.6061 z m -173.45684,1.5534 c 0.53129,0 0.94723,0.1411 1.24768,0.4231 0.30411,0.2823 0.45593,0.6713 0.45593,1.1658 0,0.4911 -0.15182,0.88 -0.45593,1.1658 -0.30412,0.2821 -0.72007,0.4231 -1.24768,0.4231 -0.52763,0 -0.94357,-0.141 -1.24768,-0.4231 -0.30045,-0.2821 -0.4532,-0.6711 -0.4532,-1.1658 0,-0.4945 0.15275,-0.8835 0.4532,-1.1658 0.30411,-0.282 0.72005,-0.4231 1.24768,-0.4231 z m 51.16833,0.8027 1.00742,0 0,0.2265 c 0,0.6595 -0.16978,1.1869 -0.51053,1.5863 -0.33709,0.3957 -0.7881,0.5952 -1.3487,0.5952 -0.4067,0 -0.7283,-0.1048 -0.96646,-0.314 -0.2345,-0.2126 -0.3522,-0.4981 -0.3522,-0.8572 0,-0.4507 0.15722,-0.7687 0.47232,-0.9556 0.31511,-0.1869 0.88108,-0.2812 1.69815,-0.2812 z m 39.83551,0 1.0074,0 0,0.2265 c 0,0.6595 -0.1725,1.1869 -0.5132,1.5863 -0.3371,0.3957 -0.7854,0.5952 -1.346,0.5952 -0.4067,0 -0.7283,-0.1048 -0.9665,-0.314 -0.2345,-0.2126 -0.3522,-0.4981 -0.3522,-0.8572 0,-0.4507 0.1573,-0.7687 0.4724,-0.9556 0.3151,-0.1869 0.881,-0.2812 1.6981,-0.2812 z m 45.2002,0 1.0047,0 0,0.2265 c 0,0.6595 -0.1698,1.1869 -0.5105,1.5863 -0.3371,0.3957 -0.7854,0.5952 -1.346,0.5952 -0.4067,0 -0.7283,-0.1048 -0.9664,-0.314 -0.2345,-0.2126 -0.3522,-0.4981 -0.3522,-0.8572 0,-0.4507 0.1572,-0.7687 0.4723,-0.9556 0.3151,-0.1869 0.8811,-0.2812 1.6981,-0.2812 z m 26.3814,0 1.0047,0 0,0.2265 c 0,0.6595 -0.1698,1.1869 -0.5105,1.5863 -0.3371,0.3957 -0.7854,0.5952 -1.346,0.5952 -0.4067,0 -0.7283,-0.1048 -0.9665,-0.314 -0.2345,-0.2126 -0.3522,-0.4981 -0.3522,-0.8572 0,-0.4507 0.1573,-0.7687 0.4724,-0.9556 0.3151,-0.1869 0.881,-0.2812 1.6981,-0.2812 z m -49.4319,1.6982 0,0.9445 -0.4505,1.761 0.7098,0 0.901,-1.761 0,-0.9445 -1.1603,0 z m -113.28731,7.112 c -0.82808,0 -1.49198,0.2551 -1.99028,0.7643 -0.49831,0.5094 -0.74532,1.1858 -0.74532,2.0286 0,0.861 0.23623,1.5411 0.71255,2.0394 0.47999,0.4946 1.13131,0.7399 1.95206,0.7399 0.39572,0 0.75777,-0.083 1.08387,-0.2512 0.32609,-0.1686 0.5956,-0.4111 0.80812,-0.7262 -0.0549,1.004 -0.27777,1.7522 -0.66616,2.2469 -0.38472,0.4909 -0.9435,0.7371 -1.6763,0.7371 -0.2748,0 -0.5551,-0.034 -0.84089,-0.1035 -0.2858,-0.07 -0.56788,-0.1711 -0.84634,-0.303 l 0,1.0129 c 0.30777,0.1104 0.60423,0.1908 0.89003,0.2457 0.28578,0.054 0.56787,0.082 0.84634,0.082 1.03692,0 1.86161,-0.3827 2.47351,-1.1521 0.61555,-0.7731 0.92278,-1.8081 0.92278,-3.1015 0,-1.385 -0.25154,-2.4387 -0.75352,-3.1641 -0.4983,-0.7293 -1.22148,-1.0948 -2.17045,-1.0948 z m 0,0.8791 c 0.4983,0 0.89268,0.1715 1.18214,0.516 0.29313,0.3407 0.43955,0.8079 0.43955,1.3978 0,0.5935 -0.14642,1.0598 -0.43955,1.4006 -0.28946,0.3407 -0.68384,0.5105 -1.18214,0.5105 -0.49832,0 -0.8945,-0.1698 -1.18762,-0.5105 -0.28946,-0.3408 -0.43409,-0.8071 -0.43409,-1.4006 0,-0.5899 0.14463,-1.0571 0.43409,-1.3978 0.29312,-0.3445 0.6893,-0.516 1.18762,-0.516 z m 106.46741,13.0036 c -0.5533,0.8647 -0.9657,1.7109 -1.2368,2.539 -0.2711,0.8281 -0.4068,1.651 -0.4068,2.468 0,0.8208 0.1356,1.6472 0.4068,2.4791 0.2748,0.8317 0.6872,1.6779 1.2368,2.539 l 0.8791,0 c -0.4873,-0.8391 -0.853,-1.6728 -1.0948,-2.5009 -0.2382,-0.8317 -0.3577,-1.6708 -0.3577,-2.5172 0,-0.8464 0.1195,-1.6819 0.3577,-2.5062 0.2381,-0.8244 0.6038,-1.6581 1.0948,-2.5008 l -0.8791,0 z m 2.6864,0 c 0.4873,0.8427 0.8512,1.6764 1.0893,2.5008 0.2419,0.8243 0.3632,1.6598 0.3632,2.5062 0,0.8464 -0.1214,1.6855 -0.3632,2.5172 -0.2381,0.8281 -0.602,1.6618 -1.0893,2.5009 l 0.8791,0 c 0.5496,-0.8611 0.9602,-1.7073 1.2313,-2.539 0.2748,-0.8319 0.4123,-1.6583 0.4123,-2.4791 0,-0.817 -0.1374,-1.6399 -0.4123,-2.468 -0.2711,-0.8281 -0.6817,-1.6743 -1.2313,-2.539 l -0.8791,0 z m -109.02004,0.1884 c -0.91968,0 -1.62308,0.3629 -2.11041,1.092 -0.48365,0.7255 -0.72621,1.7819 -0.72621,3.1669 0,1.3813 0.24256,2.4352 0.72621,3.1643 0.48733,0.7255 1.19073,1.0893 2.11041,1.0893 0.91968,0 1.62129,-0.3638 2.10494,-1.0893 0.48731,-0.7291 0.72894,-1.783 0.72894,-3.1643 0,-1.385 -0.24163,-2.4414 -0.72894,-3.1669 -0.48365,-0.7291 -1.18526,-1.092 -2.10494,-1.092 z m 74.9233,0 c -1.28241,0 -2.28587,0.3736 -3.01135,1.1247 -0.72181,0.7475 -1.08386,1.7933 -1.08386,3.1342 0,1.3375 0.36205,2.3804 1.08386,3.1316 0.72548,0.7474 1.72894,1.122 3.01135,1.122 0.58624,0 1.13784,-0.078 1.65446,-0.232 0.51658,-0.1576 0.98828,-0.3867 1.41698,-0.6908 l 0,-3.5245 -2.91309,0 0,0.9118 1.81559,0 0,2.2059 c -0.24553,0.143 -0.52223,0.2471 -0.83001,0.3167 -0.30777,0.066 -0.65905,0.1007 -1.0511,0.1007 -1.00395,0 -1.75766,-0.2804 -2.2633,-0.8409 -0.50196,-0.5606 -0.75351,-1.3944 -0.75351,-2.5009 0,-1.1102 0.25155,-1.9457 0.75351,-2.5062 0.50564,-0.5607 1.25935,-0.8409 2.2633,-0.8409 0.50929,0 0.99623,0.087 1.45789,0.2621 0.46172,0.1758 0.89732,0.4382 1.30772,0.7863 l 0,-1.1822 c -0.4067,-0.2565 -0.8514,-0.4497 -1.33502,-0.5815 -0.47999,-0.1314 -0.98847,-0.1965 -1.52342,-0.1965 z m -82.46942,0.1473 -1.96296,0.3959 0,1.0102 1.97388,-0.3959 0,6.2602 -1.81553,0 0,0.9364 4.7286,0 0,-0.9364 -1.81555,0 0,-7.2704 -1.10844,0 z m 7.54612,0.7318 c 0.57525,0 1.00556,0.2821 1.29136,0.8462 0.28945,0.5607 0.43408,1.4051 0.43408,2.5336 0,1.1248 -0.14463,1.9694 -0.43408,2.5336 -0.2858,0.5606 -0.71611,0.8409 -1.29136,0.8409 -0.57159,0 -1.00464,-0.2803 -1.29409,-0.8409 -0.2858,-0.5642 -0.42863,-1.4088 -0.42863,-2.5336 0,-1.1285 0.14283,-1.9729 0.42863,-2.5336 0.28945,-0.5641 0.7225,-0.8462 1.29409,-0.8462 z m 24.79515,1.1684 c -0.75479,0 -1.3648,0.2902 -1.82646,0.8654 -0.46166,0.5754 -0.69073,1.338 -0.69073,2.2907 0,0.949 0.22907,1.7099 0.69073,2.2851 0.46166,0.5752 1.07167,0.8654 1.82646,0.8654 0.45434,0 0.84241,-0.091 1.16851,-0.2702 0.3261,-0.1796 0.59381,-0.4509 0.80266,-0.8136 l 0,0.4997 c 0,0.6997 -0.1644,1.2227 -0.49416,1.567 -0.32976,0.3482 -0.82474,0.5215 -1.48792,0.5215 -0.30045,0 -0.59784,-0.038 -0.88731,-0.1146 -0.28945,-0.077 -0.58231,-0.1966 -0.87909,-0.3577 l 0,0.9828 c 0.29678,0.1104 0.60495,0.1918 0.92005,0.2431 0.3151,0.054 0.64928,0.082 1.00469,0.082 0.95998,0 1.67237,-0.2571 2.13771,-0.77 0.46532,-0.5093 0.69891,-1.2864 0.69891,-2.3343 l 0,-5.392 -1.01288,0 0,0.9337 c -0.20885,-0.3627 -0.47656,-0.6341 -0.80266,-0.8135 -0.3261,-0.1797 -0.71417,-0.2704 -1.16851,-0.2704 z m 7.22669,0 c -0.32977,0 -0.67026,0.039 -1.01834,0.1119 -0.34809,0.07 -0.70561,0.1765 -1.07567,0.3194 l 0,0.9337 c 0.30777,-0.1686 0.62758,-0.2952 0.96101,-0.3795 0.33342,-0.084 0.67751,-0.1258 1.02925,-0.1258 0.55328,0 0.9818,0.1258 1.28591,0.3823 0.30777,0.2527 0.46138,0.6131 0.46138,1.0784 l 0,0.098 -1.41967,0 c -0.91967,0 -1.6123,0.1778 -2.07764,0.5297 -0.46166,0.3517 -0.69072,0.8718 -0.69072,1.5643 0,0.5936 0.18415,1.07 0.55421,1.4251 0.37374,0.3518 0.87683,0.527 1.50705,0.527 0.4983,0 0.91963,-0.089 1.26406,-0.2648 0.34441,-0.1796 0.63189,-0.4562 0.86271,-0.83 l 0,0.9364 1.01016,0 0,-3.5137 c 0,-0.9377 -0.21829,-1.6377 -0.65796,-2.0994 -0.43969,-0.4618 -1.10538,-0.6935 -1.99574,-0.6935 z m 7.69901,0 c -0.44335,0 -0.82696,0.091 -1.1494,0.2704 -0.32243,0.1795 -0.59914,0.4579 -0.82996,0.8353 l 0,-0.9555 -1.01561,0 0,6.1564 1.01561,0 0,-3.4808 c 0,-0.5973 0.15182,-1.069 0.45593,-1.417 0.30411,-0.3517 0.71467,-0.5269 1.2313,-0.5269 0.43602,0 0.76035,0.1427 0.9692,0.4286 0.20885,0.2821 0.31124,0.7196 0.31124,1.3133 l 0,3.6828 1.01834,0 0,-3.4808 c 0,-0.601 0.15181,-1.0744 0.45593,-1.4225 0.30412,-0.348 0.71826,-0.5214 1.24222,-0.5214 0.42869,0 0.7467,0.1427 0.95555,0.4286 0.20885,0.2859 0.31396,0.7232 0.31396,1.3133 l 0,3.6828 1.01561,0 0,-3.7157 c 0,-0.8281 -0.17337,-1.4667 -0.52146,-1.9138 -0.34807,-0.4506 -0.84126,-0.6771 -1.48246,-0.6771 -0.47632,0 -0.89047,0.1091 -1.24221,0.3249 -0.35175,0.2162 -0.65632,0.5531 -0.90913,1.0074 -0.15023,-0.4323 -0.3811,-0.7638 -0.69619,-0.9911 -0.31144,-0.2271 -0.69147,-0.3412 -1.13847,-0.3412 z m 10.59022,0 c -0.92334,0 -1.65728,0.2992 -2.20322,0.8928 -0.54228,0.5899 -0.8136,1.3867 -0.8136,2.3944 0,0.9745 0.28569,1.7489 0.85728,2.3205 0.57525,0.5716 1.35503,0.8573 2.337,0.8573 0.39205,0 0.77925,-0.039 1.16031,-0.1202 0.38106,-0.081 0.75115,-0.1984 1.11389,-0.3523 l 0,-0.9582 c -0.35908,0.1906 -0.72019,0.3334 -1.08659,0.4286 -0.36274,0.095 -0.73916,0.1447 -1.12755,0.1447 -0.67051,0 -1.19517,-0.1805 -1.57256,-0.5434 -0.37373,-0.366 -0.58123,-0.8981 -0.62521,-1.5943 l 4.64944,0 0,-0.4942 c 0,-0.916 -0.24256,-1.6419 -0.72623,-2.1732 -0.47998,-0.5349 -1.1349,-0.8026 -1.96296,-0.8026 z m 31.83347,0 c -0.3298,0 -0.6675,0.039 -1.0156,0.1119 -0.3481,0.07 -0.7084,0.1765 -1.0784,0.3194 l 0,0.9337 c 0.3078,-0.1686 0.6276,-0.2952 0.961,-0.3795 0.3334,-0.084 0.6775,-0.1258 1.0293,-0.1258 0.5532,0 0.9817,0.1258 1.2858,0.3823 0.3078,0.2527 0.4614,0.6131 0.4614,1.0784 l 0,0.098 -1.4169,0 c -0.9197,0 -1.6123,0.1778 -2.0776,0.5297 -0.4617,0.3517 -0.6935,0.8718 -0.6935,1.5643 0,0.5936 0.1841,1.07 0.5542,1.4251 0.3737,0.3518 0.8768,0.527 1.5071,0.527 0.4983,0 0.9196,-0.089 1.264,-0.2648 0.3444,-0.1796 0.6319,-0.4562 0.8627,-0.83 l 0,0.9364 1.0129,0 0,-3.5137 c 0,-0.9377 -0.221,-1.6377 -0.6607,-2.0994 -0.4397,-0.4618 -1.1054,-0.6935 -1.9957,-0.6935 z m 7.7017,0 c -0.4433,0 -0.8269,0.091 -1.1494,0.2704 -0.3224,0.1795 -0.5991,0.4579 -0.8299,0.8353 l 0,-0.9555 -1.0184,0 0,6.1564 1.0184,0 0,-3.4808 c 0,-0.5973 0.1518,-1.069 0.4559,-1.417 0.3041,-0.3517 0.7147,-0.5269 1.2313,-0.5269 0.436,0 0.7576,0.1427 0.9665,0.4286 0.2088,0.2821 0.3139,0.7196 0.3139,1.3133 l 0,3.6828 1.0156,0 0,-3.4808 c 0,-0.601 0.1519,-1.0744 0.456,-1.4225 0.3041,-0.348 0.7182,-0.5214 1.2422,-0.5214 0.4287,0 0.7494,0.1427 0.9583,0.4286 0.2088,0.2859 0.3112,0.7232 0.3112,1.3133 l 0,3.6828 1.0184,0 0,-3.7157 c 0,-0.8281 -0.1734,-1.4667 -0.5215,-1.9138 -0.3481,-0.4506 -0.844,-0.6771 -1.4852,-0.6771 -0.4763,0 -0.8905,0.1091 -1.2422,0.3249 -0.3518,0.2162 -0.6536,0.5531 -0.9064,1.0074 -0.1502,-0.4323 -0.3838,-0.7638 -0.6989,-0.9911 -0.3115,-0.2271 -0.6888,-0.3412 -1.1358,-0.3412 z m 10.5902,0 c -0.9233,0 -1.6572,0.2992 -2.2032,0.8928 -0.5423,0.5899 -0.8136,1.3867 -0.8136,2.3944 0,0.9745 0.2857,1.7489 0.8573,2.3205 0.5753,0.5716 1.3523,0.8573 2.3343,0.8573 0.392,0 0.7792,-0.039 1.1603,-0.1202 0.381,-0.081 0.7539,-0.1984 1.1166,-0.3523 l 0,-0.9582 c -0.3591,0.1906 -0.7229,0.3334 -1.0893,0.4286 -0.3628,0.095 -0.7392,0.1447 -1.1276,0.1447 -0.6705,0 -1.1924,-0.1805 -1.5698,-0.5434 -0.3737,-0.366 -0.584,-0.8981 -0.6279,-1.5943 l 4.6494,0 0,-0.4942 c 0,-0.916 -0.2426,-1.6419 -0.7262,-2.1732 -0.48,-0.5349 -1.1322,-0.8026 -1.9603,-0.8026 z m 13.3996,0.4861 0,1.395 1.1576,0 0,-1.395 -1.1576,0 z m -88.79518,0.3603 c 0.54594,0 0.96908,0.203 1.26953,0.6061 0.30411,0.403 0.45593,0.9708 0.45593,1.7036 0,0.7291 -0.15182,1.2951 -0.45593,1.6982 -0.30045,0.403 -0.72359,0.6033 -1.26953,0.6033 -0.54227,0 -0.9654,-0.2003 -1.26951,-0.6033 -0.30045,-0.4031 -0.45048,-0.9691 -0.45048,-1.6982 0,-0.7328 0.15003,-1.3006 0.45048,-1.7036 0.30411,-0.4031 0.72724,-0.6061 1.26951,-0.6061 z m 25.28113,0.014 0,0 c 0.4983,0 0.89808,0.1644 1.19853,0.4943 0.30411,0.3297 0.45952,0.7708 0.46686,1.324 l -3.6038,0 c 0.0513,-0.5788 0.24443,-1.0271 0.58153,-1.346 0.34075,-0.3187 0.79261,-0.4777 1.35688,-0.4777 z m 50.12545,0 0,0 c 0.4983,0 0.8981,0.1644 1.1985,0.4943 0.3041,0.3297 0.4595,0.7708 0.4669,1.324 l -3.6066,0 c 0.051,-0.5788 0.2472,-1.0271 0.5843,-1.346 0.3407,-0.3187 0.7926,-0.4777 1.3569,-0.4777 z m -42.07153,0.3386 0,0.9255 7.04376,0 0,-0.9255 -7.04376,0 z m -25.71795,2.0176 1.00742,0 0,0.2266 c 0,0.6595 -0.1725,1.1868 -0.51325,1.5863 -0.33711,0.3955 -0.78538,0.595 -1.34596,0.595 -0.40672,0 -0.72832,-0.1048 -0.96648,-0.3139 -0.2345,-0.2125 -0.35218,-0.4982 -0.35218,-0.8573 0,-0.4507 0.1572,-0.7687 0.47231,-0.9556 0.3151,-0.1865 0.88107,-0.2811 1.69814,-0.2811 z m 50.12548,0 1.0046,0 0,0.2266 c 0,0.6595 -0.1697,1.1868 -0.5105,1.5863 -0.3371,0.3955 -0.7854,0.595 -1.346,0.595 -0.4067,0 -0.731,-0.1048 -0.9692,-0.3139 -0.2345,-0.2125 -0.3494,-0.4982 -0.3494,-0.8573 0,-0.4507 0.1572,-0.7687 0.4723,-0.9556 0.3151,-0.1865 0.8811,-0.2811 1.6982,-0.2811 z m -24.40753,0.2266 0,0.9337 7.04376,0 0,-0.9337 -7.04376,0 z m 55.46013,1.4715 0,0.9447 -0.4505,1.7609 0.7071,0 0.901,-1.7609 0,-0.9447 -1.1576,0 z m -121.38216,7.2595 -1.96296,0.3959 0,1.0128 1.97388,-0.3958 0,6.2602 -1.81553,0 0,0.9337 4.7286,0 0,-0.9337 -1.81555,0 0,-7.2731 -1.10844,0 z m 7.16664,0 -1.96298,0.3959 0,1.0128 1.97389,-0.3958 0,6.2602 -1.81554,0 0,0.9337 4.7286,0 0,-0.9337 -1.81555,0 0,-7.2731 -1.10842,0 z m 58.62162,13.7243 0,1.2806 1.01287,0 0,-1.2806 -1.01287,0 z m 10.26806,0 0,1.2806 1.01014,0 0,-1.2806 -1.01014,0 z m 7.54065,0 0,1.2806 1.01019,0 0,-1.2806 -1.01019,0 z m 10.02509,0 0,8.5537 1.0101,0 0,-8.5537 -1.0101,0 z m 3.1206,0 0,1.2806 1.0101,0 0,-1.2806 -1.0101,0 z m 17.5111,0.014 c -0.5533,0.8647 -0.9656,1.711 -1.2368,2.5391 -0.2711,0.828 -0.4068,1.6509 -0.4068,2.468 0,0.8206 0.1358,1.6473 0.4068,2.479 0.2748,0.8317 0.6872,1.678 1.2368,2.5391 l 0.8791,0 c -0.4873,-0.839 -0.853,-1.6728 -1.0948,-2.5009 -0.2382,-0.8319 -0.3577,-1.6708 -0.3577,-2.5172 0,-0.8464 0.1196,-1.6818 0.3577,-2.5062 0.2382,-0.8244 0.6038,-1.6582 1.0948,-2.5009 l -0.8791,0 z m 2.6865,0 c 0.4873,0.8427 0.8511,1.6765 1.0893,2.5009 0.2418,0.8244 0.3631,1.6598 0.3631,2.5062 0,0.8464 -0.1213,1.6853 -0.3631,2.5172 -0.2382,0.8281 -0.602,1.6619 -1.0893,2.5009 l 0.879,0 c 0.5496,-0.8611 0.9602,-1.7074 1.2313,-2.5391 0.2748,-0.8317 0.4123,-1.6584 0.4123,-2.479 0,-0.8171 -0.1374,-1.64 -0.4123,-2.468 -0.2711,-0.8281 -0.6817,-1.6744 -1.2313,-2.5391 l -0.879,0 z m -109.77362,0.1885 c -0.32244,0 -0.67911,0.045 -1.0675,0.137 -0.38839,0.091 -0.80612,0.2272 -1.25313,0.4067 l 0,1.1222 c 0.43969,-0.2455 0.85203,-0.4307 1.23675,-0.5516 0.38838,-0.1216 0.75762,-0.1802 1.10571,-0.1802 0.49097,0 0.88895,0.137 1.19308,0.4124 0.30777,0.2748 0.46138,0.6287 0.46138,1.0647 0,0.2676 -0.0728,0.5406 -0.21567,0.819 -0.13922,0.2748 -0.38719,0.6135 -0.7426,1.0129 -0.18686,0.2125 -0.64412,0.6859 -1.37326,1.4224 -0.72549,0.7328 -1.29863,1.3166 -1.71999,1.7528 l 0,0.9364 5.20911,0 0,-0.9364 -3.87408,0 c 0.89402,-0.9124 1.58666,-1.6212 2.07764,-2.1268 0.49099,-0.5094 0.78204,-0.8165 0.87364,-0.9227 0.33343,-0.4104 0.56343,-0.7644 0.688,-1.0648 0.12819,-0.3041 0.19112,-0.6266 0.19112,-0.9638 0,-0.7108 -0.25335,-1.2786 -0.75899,-1.7037 -0.50563,-0.4249 -1.18116,-0.636 -2.03121,-0.636 z m -7.16664,0.1473 -1.96296,0.3959 0,1.0102 1.97388,-0.3959 0,6.2602 -1.81553,0 0,0.9364 4.7286,0 0,-0.9364 -1.81555,0 0,-7.2704 -1.10844,0 z m 79.16049,0.3031 0,1.7472 -0.7426,0 0,0.7863 0.7426,0 0,3.3418 c 0,0.7695 0.14822,1.3013 0.44501,1.5944 0.29679,0.2895 0.83581,0.434 1.61625,0.434 l 1.03745,0 0,-0.8462 -1.03745,0 c -0.42137,0 -0.70166,-0.073 -0.84088,-0.2157 -0.13559,-0.1429 -0.20203,-0.4645 -0.20203,-0.9665 l 0,-3.3418 2.08036,0 0,-0.7863 -2.08036,0 0,-1.7472 -1.01835,0 z m -46.81922,1.5818 c -0.75479,0 -1.3648,0.2876 -1.82646,0.8628 -0.46166,0.5752 -0.69073,1.3379 -0.69073,2.2905 0,0.949 0.22907,1.7099 0.69073,2.2852 0.46166,0.5753 1.07167,0.8653 1.82646,0.8653 0.45434,0 0.84241,-0.091 1.16851,-0.2702 0.3261,-0.1794 0.59381,-0.4509 0.80266,-0.8136 l 0,0.4997 c 0,0.6999 -0.1644,1.2227 -0.49416,1.5671 -0.32976,0.3481 -0.82474,0.5214 -1.48792,0.5214 -0.30045,0 -0.59784,-0.038 -0.88731,-0.1146 -0.28945,-0.077 -0.58231,-0.1966 -0.87909,-0.3577 l 0,0.9828 c 0.29678,0.1104 0.60495,0.1918 0.92005,0.2431 0.3151,0.054 0.64928,0.082 1.00469,0.082 0.95998,0 1.67237,-0.257 2.13771,-0.77 0.46532,-0.5092 0.69891,-1.2863 0.69891,-2.3342 l 0,-5.3921 -1.01288,0 0,0.9337 c -0.20885,-0.3627 -0.47656,-0.6339 -0.80266,-0.8135 -0.3261,-0.1795 -0.71417,-0.2676 -1.16851,-0.2676 z m 7.22669,0 c -0.32977,0 -0.67026,0.036 -1.01834,0.1091 -0.34809,0.07 -0.70561,0.1764 -1.07567,0.3194 l 0,0.9337 c 0.30777,-0.1685 0.62758,-0.2952 0.96101,-0.3795 0.33342,-0.084 0.67751,-0.1258 1.02925,-0.1258 0.55328,0 0.9818,0.1258 1.28591,0.3823 0.30777,0.2529 0.46138,0.6131 0.46138,1.0784 l 0,0.098 -1.41967,0 c -0.91967,0 -1.6123,0.178 -2.07764,0.5297 -0.46166,0.3518 -0.69072,0.8718 -0.69072,1.5643 0,0.5935 0.18415,1.0699 0.55421,1.4252 0.37374,0.3517 0.87683,0.5269 1.50705,0.5269 0.4983,0 0.91963,-0.089 1.26406,-0.2648 0.34441,-0.1795 0.63189,-0.4564 0.86271,-0.83 l 0,0.9364 1.01016,0 0,-3.5136 c 0,-0.9379 -0.21829,-1.638 -0.65796,-2.0995 -0.43969,-0.4617 -1.10538,-0.6907 -1.99574,-0.6907 z m 7.69901,0 c -0.44335,0 -0.82696,0.088 -1.1494,0.2676 -0.32243,0.1796 -0.59914,0.4579 -0.82996,0.8353 l 0,-0.9555 -1.01561,0 0,6.1564 1.01561,0 0,-3.4808 c 0,-0.5972 0.15182,-1.069 0.45593,-1.417 0.30411,-0.3519 0.71467,-0.5269 1.2313,-0.5269 0.43602,0 0.76035,0.1428 0.9692,0.4286 0.20885,0.2821 0.31124,0.7198 0.31124,1.3133 l 0,3.6828 1.01834,0 0,-3.4808 c 0,-0.6008 0.15181,-1.0744 0.45593,-1.4225 0.30412,-0.348 0.71826,-0.5214 1.24222,-0.5214 0.42869,0 0.7467,0.1428 0.95555,0.4286 0.20885,0.2857 0.31396,0.7234 0.31396,1.3133 l 0,3.6828 1.01561,0 0,-3.7157 c 0,-0.828 -0.17337,-1.4667 -0.52146,-1.9137 -0.34807,-0.4507 -0.84126,-0.6744 -1.48246,-0.6744 -0.47632,0 -0.89047,0.1063 -1.24221,0.3221 -0.35175,0.2161 -0.65632,0.5531 -0.90913,1.0074 -0.15023,-0.4323 -0.3811,-0.7638 -0.69619,-0.9909 -0.31144,-0.2272 -0.69147,-0.3386 -1.13847,-0.3386 z m 10.59022,0 c -0.92334,0 -1.65728,0.2965 -2.20322,0.89 -0.54228,0.5901 -0.8136,1.3868 -0.8136,2.3944 0,0.9747 0.28569,1.749 0.85728,2.3205 0.57525,0.5716 1.35503,0.8573 2.337,0.8573 0.39205,0 0.77925,-0.039 1.16031,-0.1202 0.38106,-0.081 0.75115,-0.1983 1.11389,-0.3522 l 0,-0.9556 c -0.35908,0.1905 -0.72019,0.3335 -1.08659,0.4287 -0.36274,0.095 -0.73916,0.1419 -1.12755,0.1419 -0.67051,0 -1.19517,-0.1805 -1.57256,-0.5432 -0.37373,-0.3664 -0.58123,-0.8984 -0.62521,-1.5945 l 4.64944,0 0,-0.4941 c 0,-0.916 -0.24256,-1.6419 -0.72623,-2.1733 -0.47998,-0.5349 -1.1349,-0.7998 -1.96296,-0.7998 z m 14.02201,0 c -0.42868,0 -0.80871,0.09 -1.13848,0.273 -0.32608,0.1833 -0.60997,0.4598 -0.85179,0.8299 l 0,-0.9555 -1.01561,0 0,6.1564 1.01561,0 0,-3.4808 c 0,-0.6008 0.15721,-1.0744 0.47231,-1.4225 0.3151,-0.348 0.74542,-0.5214 1.29136,-0.5214 0.45434,0 0.79663,0.1446 1.0238,0.4341 0.22716,0.2893 0.33854,0.7252 0.33854,1.3078 l 0,3.6828 1.01289,0 0,-3.7157 c 0,-0.85 -0.18056,-1.4941 -0.54331,-1.9301 -0.36273,-0.4396 -0.89817,-0.658 -1.60532,-0.658 z m 16.99786,0 c -0.3298,0 -0.6675,0.036 -1.0156,0.1091 -0.3481,0.07 -0.7083,0.1764 -1.0784,0.3194 l 0,0.9337 c 0.3078,-0.1685 0.6303,-0.2952 0.9637,-0.3795 0.3335,-0.084 0.6748,-0.1258 1.0266,-0.1258 0.5532,0 0.9818,0.1258 1.2859,0.3823 0.3077,0.2529 0.4613,0.6131 0.4613,1.0784 l 0,0.098 -1.4169,0 c -0.9197,0 -1.6123,0.178 -2.0776,0.5297 -0.4617,0.3518 -0.6935,0.8718 -0.6935,1.5643 0,0.5935 0.1869,1.0699 0.557,1.4252 0.3737,0.3517 0.8741,0.5269 1.5043,0.5269 0.4983,0 0.9196,-0.089 1.264,-0.2648 0.3444,-0.1795 0.6319,-0.4564 0.8627,-0.83 l 0,0.9364 1.0129,0 0,-3.5136 c 0,-0.9379 -0.221,-1.638 -0.6607,-2.0995 -0.4396,-0.4617 -1.1053,-0.6907 -1.9957,-0.6907 z m 19.4796,0 c -0.9234,0 -1.66,0.2965 -2.206,0.89 -0.5422,0.5901 -0.8136,1.3868 -0.8136,2.3944 0,0.9747 0.2884,1.749 0.86,2.3205 0.5753,0.5716 1.3523,0.8573 2.3343,0.8573 0.3921,0 0.7793,-0.039 1.1603,-0.1202 0.3811,-0.081 0.7539,-0.1983 1.1166,-0.3522 l 0,-0.9556 c -0.359,0.1905 -0.7229,0.3335 -1.0893,0.4287 -0.3627,0.095 -0.7391,0.1419 -1.1275,0.1419 -0.6705,0 -1.1952,-0.1805 -1.5726,-0.5432 -0.3737,-0.3664 -0.5812,-0.8984 -0.6252,-1.5945 l 4.6494,0 0,-0.4941 c 0,-0.916 -0.2425,-1.6419 -0.7262,-2.1733 -0.48,-0.5349 -1.1321,-0.7998 -1.9602,-0.7998 z m -42.5684,0.1474 0,6.1564 1.01287,0 0,-6.1564 -1.01287,0 z m 10.26806,0 0,6.1564 1.01014,0 0,-6.1564 -1.01014,0 z m 7.54065,0 0,6.1564 1.01019,0 0,-6.1564 -1.01019,0 z m 13.14569,0 0,6.1564 1.0101,0 0,-6.1564 -1.0101,0 z m 2.681,0 0,0.8082 3.6665,0 -3.8031,4.4227 0,0.9255 4.9416,0 0,-0.808 -3.8031,0 3.8031,-4.4256 0,-0.9228 -4.805,0 z m 22.3325,0.3359 0,1.395 1.1576,0 0,-1.395 -1.1576,0 z m -89.16918,0.363 c 0.54594,0 0.96908,0.2004 1.26953,0.6034 0.30411,0.4032 0.45593,0.9707 0.45593,1.7036 0,0.7291 -0.15182,1.2952 -0.45593,1.6982 -0.30045,0.4031 -0.72359,0.6061 -1.26953,0.6061 -0.54227,0 -0.9654,-0.203 -1.26951,-0.6061 -0.30045,-0.403 -0.45048,-0.9691 -0.45048,-1.6982 0,-0.7329 0.15003,-1.3004 0.45048,-1.7036 0.30411,-0.403 0.72724,-0.6034 1.26951,-0.6034 z m 25.28113,0.014 0,0 c 0.4983,0 0.89808,0.1644 1.19853,0.4941 0.30411,0.3298 0.45952,0.7709 0.46686,1.3242 l -3.6038,0 c 0.0513,-0.579 0.24443,-1.0273 0.58153,-1.346 0.34075,-0.3188 0.79261,-0.4778 1.35688,-0.4778 z m 50.49945,0 0,0 c 0.4983,0 0.8981,0.1644 1.1985,0.4941 0.3042,0.3298 0.4596,0.7709 0.4669,1.3242 l -3.6065,0 c 0.051,-0.579 0.2444,-1.0273 0.5815,-1.346 0.3407,-0.3188 0.7953,-0.4778 1.3596,-0.4778 z m -68.16348,2.356 1.00742,0 0,0.2268 c 0,0.6596 -0.1725,1.1867 -0.51325,1.5861 -0.33711,0.3957 -0.78538,0.5952 -1.34596,0.5952 -0.40672,0 -0.72832,-0.1049 -0.96648,-0.314 -0.2345,-0.2124 -0.35218,-0.4982 -0.35218,-0.8573 0,-0.4506 0.1572,-0.7686 0.47231,-0.9555 0.3151,-0.1869 0.88107,-0.2813 1.69814,-0.2813 z m 49.31188,0 1.0046,0 0,0.2268 c 0,0.6596 -0.1697,1.1867 -0.5105,1.5861 -0.3371,0.3957 -0.7854,0.5952 -1.3459,0.5952 -0.4068,0 -0.7311,-0.1049 -0.9692,-0.314 -0.2345,-0.2124 -0.3495,-0.4982 -0.3495,-0.8573 0,-0.4506 0.1572,-0.7686 0.4723,-0.9555 0.3151,-0.1869 0.8811,-0.2813 1.6982,-0.2813 z m -27.16769,1.6983 0,1.3978 1.16032,0 0,-1.3978 -1.16032,0 z m 59.40789,0 0,0.9446 -0.4505,1.7609 0.7071,0 0.901,-1.7609 0,-0.9446 -1.1576,0 z m -94.73047,6.9155 0,0.7862 0.38495,0 c 0.51296,0 0.84534,0.08 0.99923,0.2402 0.15755,0.1575 0.23752,0.498 0.23752,1.0183 l 0,1.3625 c 0,0.5753 0.0808,0.9929 0.24571,1.253 0.16489,0.2601 0.45056,0.4354 0.85728,0.527 -0.40672,0.099 -0.69239,0.2776 -0.85728,0.5379 -0.16488,0.26 -0.24571,0.676 -0.24571,1.2475 l 0,1.3652 c 0,0.5239 -0.08,0.8634 -0.23752,1.0211 -0.15389,0.1575 -0.48627,0.2375 -0.99923,0.2375 l -0.38495,0 0,0.7889 0.34672,0 c 0.91235,0 1.51963,-0.1356 1.82374,-0.4068 0.30777,-0.2711 0.4614,-0.8092 0.4614,-1.6189 l 0,-1.316 c 0,-0.5532 0.0998,-0.9341 0.29758,-1.1466 0.19785,-0.2125 0.55539,-0.3194 1.07567,-0.3194 l 0.34127,0 0,-0.7863 -0.34127,0 c -0.52028,0 -0.87782,-0.1048 -1.07567,-0.3139 -0.19786,-0.2126 -0.29758,-0.5899 -0.29758,-1.1358 l 0,-1.3187 c 0,-0.8098 -0.15363,-1.3488 -0.4614,-1.6162 -0.30411,-0.2711 -0.91139,-0.4067 -1.82374,-0.4067 l -0.34672,0 z m -19.72801,0.1965 c -0.3261,0 -0.67558,0.031 -1.04565,0.087 -0.3664,0.059 -0.75806,0.1475 -1.17942,0.2647 l 0,0.9885 c 0.4177,-0.1398 0.79858,-0.2399 1.14666,-0.3059 0.34809,-0.066 0.676,-0.1006 0.98012,-0.1006 0.55694,0 0.98365,0.1146 1.28044,0.3413 0.30045,0.2235 0.45047,0.5478 0.45047,0.9691 0,0.4104 -0.14464,0.7248 -0.43409,0.9447 -0.28946,0.2162 -0.7072,0.3248 -1.25314,0.3248 l -1.00195,0 0,0.912 0.95827,0 c 0.60456,0 1.0744,0.137 1.41149,0.4122 0.34075,0.2712 0.51053,0.6466 0.51053,1.1303 0,0.5239 -0.18235,0.9237 -0.54876,1.1985 -0.36274,0.2748 -0.89277,0.4124 -1.58893,0.4124 -0.39939,0 -0.783,-0.045 -1.1494,-0.137 -0.3664,-0.091 -0.70237,-0.2273 -1.01016,-0.4068 l 0,1.0702 c 0.38839,0.1356 0.76481,0.2371 1.12755,0.303 0.36641,0.07 0.72034,0.1035 1.06476,0.1035 1.02592,0 1.8183,-0.22 2.37522,-0.6634 0.55694,-0.4434 0.83543,-1.0713 0.83543,-1.8811 0,-0.5277 -0.15003,-0.9705 -0.45048,-1.3296 -0.29679,-0.359 -0.71092,-0.5935 -1.24221,-0.707 0.47999,-0.1203 0.85103,-0.3385 1.11116,-0.6499 0.26016,-0.3151 0.38769,-0.7005 0.38769,-1.1547 0,-0.6523 -0.24343,-1.1671 -0.7344,-1.5481 -0.49099,-0.3847 -1.15847,-0.5788 -2.0012,-0.5788 z m -7.29768,0.1501 -1.96296,0.3931 0,1.013 1.97388,-0.3959 0,6.2602 -1.81553,0 0,0.9336 4.7286,0 0,-0.9336 -1.81555,0 0,-7.2704 -1.10844,0 z" style="color:#000000;clip-rule:nonzero;display:inline;overflow:visible;visibility:visible;color-interpolation:sRGB;color-interpolation-filters:linearRGB;fill:#808080;fill-opacity:1;fill-rule:nonzero;stroke:none;stroke-width:1px;marker:none;color-rendering:auto;image-rendering:auto;shape-rendering:auto;text-rendering:auto;enable-background:accumulate"/>
  </g>
</svg>