<?xml version="1.0" encoding="UTF-8" standalone="no"?>
<!-- Created with Inkscape (http://www.inkscape.org/) -->

<svg
   xmlns:dc="http://purl.org/dc/elements/1.1/"
   xmlns:cc="http://creativecommons.org/ns#"
   xmlns:rdf="http://www.w3.org/1999/02/22-rdf-syntax-ns#"
   xmlns:svg="http://www.w3.org/2000/svg"
   xmlns="http://www.w3.org/2000/svg"
   xmlns:sodipodi="http://sodipodi.sourceforge.net/DTD/sodipodi-0.dtd"
   xmlns:inkscape="http://www.inkscape.org/namespaces/inkscape"
   id="svg2"
   xml:space="preserve"
   viewBox="0 0 677.49162 677.51714"
   version="1.1"
   inkscape:version="0.92.2 2405546, 2018-03-11"
   sodipodi:docname="capa3.svg"
   width="677.49164"
   height="677.51715"><sodipodi:namedview
   pagecolor="#ffffff"
   bordercolor="#666666"
   borderopacity="1"
   objecttolerance="10"
   gridtolerance="10"
   guidetolerance="10"
   inkscape:pageopacity="0"
   inkscape:pageshadow="2"
   inkscape:window-width="1366"
   inkscape:window-height="694"
   id="namedview65"
   showgrid="false"
   inkscape:zoom="0.10037001"
   inkscape:cx="328.76017"
   inkscape:cy="-488.20923"
   inkscape:window-x="0"
   inkscape:window-y="0"
   inkscape:window-maximized="1"
   inkscape:current-layer="svg2"
   fit-margin-top="0"
   fit-margin-left="0"
   fit-margin-right="0"
   fit-margin-bottom="0" />
  <defs
   id="defs6">
    <clipPath
   id="clipPath86">
      <path
   id="path88"
   d="M 0,2055.1 H 2055.1 V 0 H 0 Z"
   inkscape:connector-curvature="0" />
    </clipPath>
    <clipPath
   id="clipPath94">
      <path
   id="path96"
   d="m 865.36,1005.8 h 384 v -347 h -384 z"
   inkscape:connector-curvature="0" />
    </clipPath>
    <clipPath
   id="clipPath3927">
      <path
   id="path3929"
   style="fill:none;stroke:#ffffff;stroke-width:103.87999725"
   d="m 1486.1,1425.8 a 1043.75,1033.8495 0 1 1 -2087.5,0 1043.75,1033.8495 0 1 1 2087.5,0 z"
   transform="matrix(0.89346,0,0,-0.90205,632.34,2313.7)"
   inkscape:connector-curvature="0" />
    </clipPath>
  </defs>
  <g
   id="g10"
   transform="matrix(0.36324726,0,0,-0.36324726,-34.513269,712.01587)">
    <g
   id="g3933">
      <g
   id="g3869"
   clip-path="url(#clipPath3927)">
        <path
   id="path12"
   style="fill:#f3f4f4;fill-rule:evenodd"
   d="m 28.364,2026.8 h 2000 V 26.8 h -2000 z"
   inkscape:connector-curvature="0" />
        <path
   id="path14"
   style="fill:#7fc7ed;fill-rule:evenodd"
   d="m 478.36,746.75 h 210 v -190 h -210 z"
   inkscape:connector-curvature="0" />
        <path
   id="path16"
   style="fill:#7fc7ed;fill-rule:evenodd"
   d="m 1878.4,196.75 h 150 v -170 h -150 z"
   inkscape:connector-curvature="0" />
        <path
   id="path18"
   style="fill:#7fc7ed;fill-rule:evenodd"
   d="m 738.36,456.75 h 260 V 247.08 h -260 z"
   inkscape:connector-curvature="0" />
        <path
   id="path20"
   style="fill:#7fc7ed;fill-rule:evenodd"
   d="m 1538.4,2026.8 h 290 v -220 h -290 z"
   inkscape:connector-curvature="0" />
        <path
   id="path22"
   style="fill:#83cdac;fill-rule:evenodd"
   d="m 1168.4,1756.8 h 660 v -810 h -660 z"
   inkscape:connector-curvature="0" />
        <path
   id="path24"
   style="fill:#83cdac;fill-rule:evenodd"
   d="m 28.364,1756.8 h 140 v -960 h -140 z"
   inkscape:connector-curvature="0" />
        <path
   id="path26"
   style="fill:#83cdac;fill-rule:evenodd"
   d="m 478.36,196.75 h 210 v -170 h -210 z"
   inkscape:connector-curvature="0" />
        <path
   id="path28"
   style="fill:#ececec;fill-rule:evenodd"
   d="m 1118.4,1506.8 h -950 v 20 h 950 z"
   inkscape:connector-curvature="0" />
        <path
   id="path30"
   style="fill:#ececec;fill-rule:evenodd"
   d="m 738.36,996.75 h -570 v 20 h 570 z"
   inkscape:connector-curvature="0" />
        <path
   id="path32"
   style="fill:#ececec;fill-rule:evenodd"
   d="m 918.36,1906.8 h -890 v 20 h 890 z"
   inkscape:connector-curvature="0" />
        <path
   id="path34"
   style="fill:#ececec;fill-rule:evenodd"
   d="m 478.36,606.75 h -450 v 20 h 450 z"
   inkscape:connector-curvature="0" />
        <path
   id="path36"
   style="fill:#ececec;fill-rule:evenodd"
   d="m 2028.4,1586.8 h -150 v 20 h 150 z"
   inkscape:connector-curvature="0" />
        <path
   id="path38"
   style="fill:#ececec;fill-rule:evenodd"
   d="m 2028.4,1016.8 h -150 v 20 h 150 z"
   inkscape:connector-curvature="0" />
        <path
   id="path40"
   style="fill:#ececec;fill-rule:evenodd"
   d="m 2028.4,766.75 h -150 v 20 h 150 z"
   inkscape:connector-curvature="0" />
        <path
   id="path42"
   style="fill:#ececec;fill-rule:evenodd"
   d="m 738.36,346.75 h -710 v 20 h 710 z"
   inkscape:connector-curvature="0" />
        <path
   id="path44"
   style="fill:#ececec;fill-rule:evenodd"
   d="m 1828.4,656.75 h -780 v 20 h 780 z"
   inkscape:connector-curvature="0" />
        <path
   id="path46"
   style="fill:#ececec;fill-rule:evenodd"
   d="m 898.36,2026.8 h 20 v -910 h -20 z"
   inkscape:connector-curvature="0" />
        <path
   id="path48"
   style="fill:#ececec;fill-rule:evenodd"
   d="m 898.36,196.75 h 20 v -170 h -20 z"
   inkscape:connector-curvature="0" />
        <path
   id="path50"
   style="fill:#ececec;fill-rule:evenodd"
   d="m 1578.4,676.75 h 20 v -430 h -20 z"
   inkscape:connector-curvature="0" />
        <path
   id="path52"
   style="fill:#ffffff;fill-rule:evenodd"
   d="M 2028.4,1756.8 H 28.4 v 50 h 2000 z"
   inkscape:connector-curvature="0" />
        <path
   id="path54"
   style="fill:#ffffff;fill-rule:evenodd"
   d="m 738.36,746.75 h -710 v 50 h 710 z"
   inkscape:connector-curvature="0" />
        <path
   id="path56"
   style="fill:#ffffff;fill-rule:evenodd"
   d="m 1878.4,896.75 h -1147 v 50 h 1147 z"
   inkscape:connector-curvature="0" />
        <path
   id="path58"
   style="fill:#ffffff;fill-rule:evenodd"
   d="M 2028.4,196.75 H 28.4 v 50 h 2000 z"
   inkscape:connector-curvature="0" />
        <path
   id="path60"
   style="fill:#ffffff;fill-rule:evenodd"
   d="m 2028.4,1116.8 h -1340 v 50 h 1340 z"
   inkscape:connector-curvature="0" />
        <path
   id="path62"
   style="fill:#ffffff;fill-rule:evenodd"
   d="m 168.36,2026.8 h 50 V 26.8 h -50 z"
   inkscape:connector-curvature="0" />
        <path
   id="path64"
   style="fill:#ffffff;fill-rule:evenodd"
   d="m 1828.4,2026.8 h 50 V 26.8 h -50 z"
   inkscape:connector-curvature="0" />
        <path
   id="path66"
   style="fill:#ffffff;fill-rule:evenodd"
   d="m 688.36,2026.8 h 50 V 26.8 h -50 z"
   inkscape:connector-curvature="0" />
        <path
   id="path68"
   style="fill:#ffffff;fill-rule:evenodd"
   d="m 1118.4,1806.8 h 50 v -910 h -50 z"
   inkscape:connector-curvature="0" />
        <path
   id="path70"
   style="fill:#ffffff;fill-rule:evenodd"
   d="m 998.36,896.75 h 50 v -700 h -50 z"
   inkscape:connector-curvature="0" />
        <path
   id="path72"
   style="fill:#ffffff;fill-rule:evenodd"
   d="m 1488.4,2026.8 h 50 v -910 h -50 z"
   inkscape:connector-curvature="0" />
        <path
   id="path74"
   style="fill:#fee379;fill-rule:evenodd"
   d="m 378.36,2026.8 h 100 V 26.8 h -100 z"
   inkscape:connector-curvature="0" />
        <path
   id="path76"
   style="fill:#fee379;fill-rule:evenodd"
   d="m 1328.4,2026.8 h 100 V 26.8 h -100 z"
   inkscape:connector-curvature="0" />
        <path
   id="path78"
   style="fill:#fee379;fill-rule:evenodd"
   d="M 2028.4,1286.8 H 28.4 v 100 h 2000 z"
   inkscape:connector-curvature="0" />
        <path
   id="path80"
   style="fill:#fee379;fill-rule:evenodd"
   d="m 2027.4,456.75 h -1549 v 100 h 1549 z"
   inkscape:connector-curvature="0" />
        <g
   id="g82">
          <g
   id="g84"
   clip-path="url(#clipPath86)">
            <g
   id="g90">
              <g
   id="g98">
                <g
   id="g100"
   style="opacity:0.3"
   clip-path="url(#clipPath94)">
                  <g
   id="g102"
   transform="translate(866.57,658.75)">
                    <path
   id="path104"
   style="fill:#d0d0d0"
   d="m 0,0 c 48.69,46.36 154.72,112.35 247.51,144.89 50.55,17.73 86.91,39.46 101.97,55.07 52.3,54.2 41.88,116.38 -23.29,138.89 -65.17,22.5 -160.41,-3.19 -212.71,-57.4 C 98.41,265.85 85.14,236.14 84.75,201.09 84.05,136.75 41.55,48.83 -1.21,0.42 Z"
   inkscape:connector-curvature="0" />
                  </g>
                </g>
              </g>
            </g>
            <g
   id="g106"
   transform="translate(867.24,659.29)">
              <path
   id="path108"
   style="fill:#de5764"
   d="m 0,0 c 4.29,83.52 50.31,219.18 117.02,304.56 36.34,46.52 53.06,91.85 53.06,119.36 0,95.54 -76.54,173 -170.96,173 -94.42,0 -170.96,-77.46 -170.96,-173 0,-27.51 16.72,-72.84 53.06,-119.36 C -52.07,219.18 -6.05,83.52 -1.76,0 Z"
   inkscape:connector-curvature="0" />
            </g>
            <g
   id="g110"
   transform="translate(867.24,659.29)">
              <path
   id="path112"
   style="fill:none;stroke:#ec5c6a;stroke-width:10;stroke-linecap:round;stroke-linejoin:round;stroke-miterlimit:10"
   d="m 0,0 c 4.29,83.52 50.31,219.18 117.02,304.56 36.34,46.52 53.06,91.85 53.06,119.36 0,95.54 -76.54,173 -170.96,173 -94.42,0 -170.96,-77.46 -170.96,-173 0,-27.51 16.72,-72.84 53.06,-119.36 C -52.07,219.18 -6.05,83.52 -1.76,0 Z"
   inkscape:connector-curvature="0" />
            </g>
            <g
   id="g114"
   transform="translate(803.86,1087.3)">
              <path
   id="path116"
   style="fill:#ffffff;fill-rule:evenodd"
   d="M 0,0 C 0,34.52 27.98,62.5 62.5,62.5 97.02,62.5 125,34.52 125,0 125,-34.52 97.02,-62.5 62.5,-62.5 27.98,-62.5 0,-34.52 0,0"
   inkscape:connector-curvature="0" />
            </g>
            <g
   id="g118"
   transform="translate(803.86,1087.3)">
              <path
   id="path120"
   style="fill:none;stroke:#ec5c6a;stroke-width:5;stroke-linecap:round;stroke-linejoin:round;stroke-miterlimit:10"
   d="M 0,0 C 0,34.52 27.98,62.5 62.5,62.5 97.02,62.5 125,34.52 125,0 125,-34.52 97.02,-62.5 62.5,-62.5 27.98,-62.5 0,-34.52 0,0 Z"
   inkscape:connector-curvature="0" />
            </g>
          </g>
        </g>
      </g>
    </g>
  </g>
<metadata
   id="metadata62"><rdf:RDF><cc:Work><dc:format>image/svg+xml</dc:format><dc:type
         rdf:resource="http://purl.org/dc/dcmitype/StillImage" /><cc:license
         rdf:resource="http://creativecommons.org/publicdomain/zero/1.0/" /><dc:publisher><cc:Agent
           rdf:about="http://openclipart.org/"><dc:title>Openclipart</dc:title></cc:Agent></dc:publisher><dc:title></dc:title></cc:Work><cc:License
       rdf:about="http://creativecommons.org/publicdomain/zero/1.0/"><cc:permits
         rdf:resource="http://creativecommons.org/ns#Reproduction" /><cc:permits
         rdf:resource="http://creativecommons.org/ns#Distribution" /><cc:permits
         rdf:resource="http://creativecommons.org/ns#DerivativeWorks" /></cc:License></rdf:RDF></metadata></svg>