<?xml version="1.0" encoding="UTF-8" standalone="no"?>
<svg xmlns:dc="http://purl.org/dc/elements/1.1/" xmlns:cc="http://creativecommons.org/ns#" xmlns:rdf="http://www.w3.org/1999/02/22-rdf-syntax-ns#" xmlns:svg="http://www.w3.org/2000/svg" xmlns="http://www.w3.org/2000/svg" xmlns:sodipodi="http://sodipodi.sourceforge.net/DTD/sodipodi-0.dtd" xmlns:inkscape="http://www.inkscape.org/namespaces/inkscape" id="svg8" version="1.1" viewBox="0 0 305.33334 266.0238" height="266.0238mm" width="305.33334mm" inkscape:version="0.91 r13725" sodipodi:docname="translationja.svg">
  <sodipodi:namedview pagecolor="#ffffff" bordercolor="#666666" borderopacity="1" objecttolerance="10" gridtolerance="10" guidetolerance="10" inkscape:pageopacity="0" inkscape:pageshadow="2" inkscape:window-width="1273" inkscape:window-height="815" id="namedview4187" showgrid="false" inkscape:zoom="0.26469605" inkscape:cx="540.9449" inkscape:cy="471.30201" inkscape:window-x="0" inkscape:window-y="0" inkscape:window-maximized="0" inkscape:current-layer="layer1"/>
  <defs id="defs2"/>
  <metadata id="metadata5">
    <rdf:RDF>
      <cc:Work rdf:about="">
        <dc:format>image/svg+xml</dc:format>
        <dc:type rdf:resource="http://purl.org/dc/dcmitype/StillImage"/>
        <dc:title/>
      </cc:Work>
    </rdf:RDF>
  </metadata>
  <g transform="translate(190.76665,-13.326782)" id="layer1">
    <g id="text4491" style="font-style:normal;font-variant:normal;font-weight:normal;font-stretch:normal;font-size:35.317173px;line-height:1.25;font-family:'OCR A Extended';-inkscape-font-specification:'OCR A Extended';letter-spacing:0px;word-spacing:0px;fill:#ffffff;fill-opacity:1;stroke:none;stroke-width:0.88292933" transform="scale(1.1091509,0.90159054)" aria-label="文"/>
    <g id="g4198">
      <rect style="opacity:1;fill:#44aa00;fill-opacity:1;stroke:#363639;stroke-width:9;stroke-linecap:round;stroke-linejoin:bevel;stroke-miterlimit:4;stroke-dasharray:none;stroke-dashoffset:1.21209455;stroke-opacity:1" id="rect4507" width="296.33334" height="257.0238" x="-186.26665" y="17.826782" ry="43.089287"/>
      <g aria-label="A" transform="matrix(1.0940439,0,0,1.1027958,5.8452604,-9.2258875)" style="font-style:normal;font-variant:normal;font-weight:normal;font-stretch:normal;font-size:77.67477417px;line-height:1.25;font-family:'OCR A Extended';-inkscape-font-specification:'OCR A Extended';letter-spacing:0px;word-spacing:0px;fill:#ffffff;fill-opacity:1;stroke:none;stroke-width:1.94186926" id="text4487">
        <path d="m -77.291825,131.4084 -2.237701,9.86105 h -17.636118 l 14.070968,-57.876804 h 24.842274 l 13.350351,57.876804 h -17.446482 l -2.275628,-9.86105 z m 3.110026,-13.57791 h 6.447613 l -3.18588,-14.14683 z" style="font-style:normal;font-variant:normal;font-weight:normal;font-stretch:normal;font-family:'Gill Sans Ultra Bold Condensed';-inkscape-font-specification:'Gill Sans Ultra Bold Condensed, ';fill:#ffffff;stroke-width:1.94186926" id="path4512"/>
      </g>
      <g id="text4189" style="font-style:normal;font-variant:normal;font-weight:normal;font-stretch:normal;font-size:15.33675289px;line-height:125%;font-family:sans-serif;-inkscape-font-specification:'OCR A Extended';letter-spacing:0px;word-spacing:0px;fill:#ffffff;fill-opacity:1;stroke:none;stroke-width:1px;stroke-linecap:butt;stroke-linejoin:miter;stroke-opacity:1" transform="scale(1.0012357,0.99876577)">
        <path id="path4194" style="font-style:normal;font-variant:normal;font-weight:800;font-stretch:normal;font-size:69.01539612px;font-family:'Hiragino Kaku Gothic Std';-inkscape-font-specification:'Hiragino Kaku Gothic Std Ultra-Bold';fill:#ffffff;fill-opacity:1" d="m 27.998154,196.55614 c -0.138031,1.38031 -0.345077,2.34652 -0.8972,3.93388 -1.380308,-0.13803 -1.932431,-0.13803 -3.243724,-0.13803 -2.346523,0 -3.588801,0.13803 -6.694493,0.62113 0.06902,-1.44932 0.06902,-1.65637 0.06902,-2.07046 0.06902,-1.17326 0.06902,-1.17326 0.138031,-1.86341 6.901539,-0.27607 17.39188,-1.10425 24.017358,-2.07047 1.587354,-0.20704 1.863415,-0.20704 2.967662,-0.27606 l -0.483108,-11.18049 c -5.590247,1.58735 -14.700279,2.82963 -25.880774,3.45077 0.414093,-4.07191 0.552124,-5.17616 1.104247,-7.24662 L 7.2245196,179.23327 c 0.1380308,0.96622 0.1380308,1.51834 0.1380308,2.89865 0,0.75917 0,1.51834 -0.069015,2.20849 -0.1380308,2.07046 -0.1380308,2.07046 -0.2070462,2.96767 l -0.9662156,0.069 -0.4140923,0 c -5.31418555,0 -8.8339707,-0.27606 -12.8368637,-1.03523 l 0.1380308,10.90443 c 0.9662155,-0.069 1.2422771,-0.069 2.2084926,-0.069 1.2422772,0 2.3465235,0 3.3817545,0.069 5.1071393,0.069 5.1071393,0.069 8.0748013,0.13803 -0.069015,2.96767 -0.069015,3.65782 -0.069015,6.00434 -4.2789546,1.7944 -6.83252421,3.51979 -9.5931401,6.2804 -4.4860007,4.486 -6.9015396,10.14527 -6.9015396,16.01158 0,8.62692 5.1761547,14.07914 13.3199715,14.07914 5.2451701,0 11.2495092,-2.6916 16.0115722,-7.17761 1.587354,2.62259 2.760616,5.38321 3.864862,9.11004 6.418432,-0.62114 10.214278,-1.51834 13.94111,-3.17471 8.350863,-3.72683 12.974894,-10.42133 12.974894,-18.77219 0,-5.24517 -1.863415,-9.59314 -5.659262,-12.97489 -2.070462,-1.86342 -4.002893,-2.89865 -6.970555,-3.86487 0.483108,-1.31129 0.966215,-2.48455 1.449323,-3.45077 l -11.042463,-2.89864 z m -6.00434,33.74853 c 5.10714,-5.03813 8.902986,-10.62837 12.077695,-18.01302 3.105692,1.58735 4.416985,3.51978 4.416985,6.62548 0,3.79584 -2.55357,7.38464 -6.556463,9.24806 -2.622585,1.24228 -5.383201,1.7944 -9.938217,2.13948 z M 6.7414118,214.91423 c 0.069015,4.9001 0.4140924,8.97201 1.0352309,12.49179 -1.3112925,0.8972 -2.4845542,1.31129 -3.7958467,1.31129 -1.9324311,0 -2.9676621,-1.44932 -2.9676621,-4.00289 0,-3.79585 2.0014465,-7.1776 5.7282779,-9.80019 z m 10.3523092,-4.76206 c 1.863416,-0.55212 3.45077,-0.75917 5.452217,-0.75917 0.621138,0 0.828184,0 1.449323,0.069 -1.311293,3.24372 -3.864862,7.45366 -6.487447,10.62837 -0.345077,-3.45077 -0.414093,-5.45222 -0.414093,-9.93822 z"/>
      </g>
      <g id="g4499" transform="rotate(-14.6,-97.83872,129.2038)" style="fill:none;stroke:#ffffff;stroke-opacity:1">
        <path id="path4493" d="M -89.958332,229.72024 C -145.64682,213.84524 -153.71031,185.875 -141.36309,132.20238" style="fill:none;stroke:#ffffff;stroke-width:9;stroke-linecap:round;stroke-linejoin:bevel;stroke-miterlimit:4;stroke-dasharray:none;stroke-opacity:1"/>
        <path id="path4495" d="m -89.958332,188.14285 2e-6,41.57739 -46.1131,12.85119" style="fill:none;stroke:#ffffff;stroke-width:9;stroke-linecap:round;stroke-linejoin:bevel;stroke-miterlimit:4;stroke-dasharray:none;stroke-opacity:1"/>
      </g>
      <g transform="rotate(162,-43.962102,152.48414)" id="g4505" style="fill:none;stroke:#ffffff;stroke-opacity:1">
        <path style="fill:none;stroke:#ffffff;stroke-width:9;stroke-linecap:round;stroke-linejoin:bevel;stroke-miterlimit:4;stroke-dasharray:none;stroke-opacity:1" d="M -89.958332,229.72024 C -145.64682,213.84524 -153.71031,185.875 -141.36309,132.20238" id="path4501"/>
        <path style="fill:none;stroke:#ffffff;stroke-width:9;stroke-linecap:round;stroke-linejoin:bevel;stroke-miterlimit:4;stroke-dasharray:none;stroke-opacity:1" d="m -89.958332,188.14285 2e-6,41.57739 -46.1131,12.85119" id="path4503"/>
      </g>
    </g>
  </g>
</svg>